<?xml version="1.0" encoding="UTF-8" standalone="no"?>
<!-- Created with Inkscape (http://www.inkscape.org/) -->

<svg
   version="1.1"
   id="svg2"
   xml:space="preserve"
   width="760"
   height="759.99866"
   viewBox="0 0 760.00001 759.99867"
   xmlns="http://www.w3.org/2000/svg"
   xmlns:svg="http://www.w3.org/2000/svg"><defs
     id="defs6"><clipPath
       clipPathUnits="userSpaceOnUse"
       id="clipPath174"><path
         d="m 23100,11282.1 c 0,-1574 -1276,-2849.99 -2850,-2849.99 -1574,0 -2850,1275.99 -2850,2849.99 0,1574 1276,2850 2850,2850 1574,0 2850,-1276 2850,-2850"
         id="path172" /></clipPath></defs><path
     d="m 759.99993,380 c 0,209.86666 -170.1333,379.99866 -380,379.99866 C 170.13333,759.99866 -6.6559375e-5,589.86666 -6.6559375e-5,380 -6.6559375e-5,170.13334 170.13333,1.088261e-5 379.99993,1.088261e-5 c 209.8667,0 380,170.13332911739 380,379.99998911739"
     style="fill:#f4bf96;fill-opacity:1;fill-rule:nonzero;stroke:none;stroke-width:0.133333"
     id="path166" /><g
     id="g168"
     transform="matrix(0.13333333,0,0,-0.13333333,-2320,1884.28)"><g
       id="g170"
       clip-path="url(#clipPath174)"><path
         d="m 21457.4,10023.7 c 108.4,-41.76 308.9,-135.38 492.6,-333.7 177.2,-191.3 255.4,-390 290,-500 -150.1,-135.8 -969.2,-849.96 -2180,-770 -968.4,63.96 -1600.7,597.17 -1790,770 21.7,102.18 87.6,344.29 300,560 174.8,177.45 365.5,252.5 464.6,283.9 807.6,-3.4 1615.2,-6.8 2422.8,-10.2"
         style="fill:#ef5e36;fill-opacity:1;fill-rule:nonzero;stroke:none"
         id="path176" /><path
         d="m 18993.5,10020 v 0 0"
         style="fill:#d4613e;fill-opacity:1;fill-rule:nonzero;stroke:none"
         id="path178" /><path
         d="m 20255.4,9666.42 c -119.7,0 -144.1,52.43 -319.4,64.43 -17.1,1.17 -31.4,1.66 -43.8,1.66 -60.3,0 -77.4,-11.62 -175.5,-12.51 -11.5,-0.1 -23.9,-0.22 -37.1,-0.22 -117.1,0 -300.2,8.82 -472.9,110.22 -54.3,31.82 -135.3,89.08 -213.2,190 v 0 l 56.1,0.1 c 101.2,-89.18 246,-165.57 370.4,-205.1 98.4,-31.28 192.2,-42.02 275,-42.02 101.5,0 186.7,16.1 244.5,30.35 64.5,-26.69 176.9,-63.88 320.2,-63.88 10,0 20,0.18 30.3,0.55 126,4.6 226,37.02 289.4,63.33 39.5,-4.16 86.7,-7.43 140,-7.43 114.6,0 257.2,15.13 410.6,69.1 38.5,13.56 205.6,72.35 327.4,158.7 26.5,-11.2 53,-22.5 79.5,-33.68 -333.7,-190.68 -547.6,-237.42 -687,-237.42 -10.4,0 -20.3,0.26 -29.9,0.73 -21.4,1.07 -54.5,3.92 -97.7,3.92 -39.4,0 -87.3,-2.37 -142.3,-10.59 -174.5,-26.04 -186.4,-75.84 -310,-79.99 -5,-0.17 -9.9,-0.25 -14.6,-0.25"
         style="fill:#d34925;fill-opacity:1;fill-rule:nonzero;stroke:none"
         id="path180" /><path
         d="m 19755,9784.84 c -17.2,-338.28 -34.4,-676.56 -51.7,-1014.84 20,-3.33 40,-6.67 60,-10 16.8,343.4 33.6,686.81 50.4,1030.21 l -58.7,-5.37"
         style="fill:#9b2a1f;fill-opacity:1;fill-rule:nonzero;stroke:none"
         id="path182" /><path
         d="m 20765.4,9804.84 c 17.3,-338.28 34.5,-676.56 51.7,-1014.84 -20,-3.33 -40,-6.67 -60,-10 -16.8,343.4 -33.6,686.81 -50.3,1030.21 l 58.6,-5.37"
         style="fill:#9b2a1f;fill-opacity:1;fill-rule:nonzero;stroke:none"
         id="path184" /><path
         d="m 19721.8,10967.6 c -58.1,-7.6 -237,-38.7 -388.5,-190.9 -124.7,-125.3 -164.8,-266.3 -178.2,-326.7 -198.4,-72 -224.7,-163 -230.1,-190 -34.4,-172.9 265,-371.92 495,-445 219,-69.56 414.5,-37.56 519.5,-11.67 69,-28.55 192.7,-69.1 350.5,-63.33 126,4.6 226,37.02 289.4,63.33 124.3,-13.1 325.9,-17.39 550.6,61.67 63.3,22.29 474,166.8 460,355 -8.4,112.4 -164.5,189.9 -245,223.3 -29,74.2 -98.2,221.3 -250,346.7 -116.5,96.3 -233.7,140.2 -305.7,160.9 -355.8,5.6 -711.6,11.2 -1067.5,16.7"
         style="fill:#ef5e36;fill-opacity:1;fill-rule:nonzero;stroke:none"
         id="path186" /><path
         d="m 20765,10225 208.3,166.1 c -79.4,136.6 -101.3,170 -103.3,168.9 -2.1,-1.1 18.2,-39.2 46.3,-110 8.9,-22.6 16.1,-41.9 21.2,-56.2 -57.5,-44.6 -115,-89.2 -172.5,-133.8 v -35"
         style="fill:#ae3620;fill-opacity:1;fill-rule:nonzero;stroke:none"
         id="path188" /><path
         d="m 19755,10210 c -67.2,55.9 -134.4,111.9 -201.7,167.8 79.5,136.5 101.4,170 103.4,168.9 2.1,-1.2 -18.2,-39.2 -46.3,-110 -9,-22.7 -16.1,-42 -21.2,-56.3 58.7,-43.3 117.4,-86.6 176.2,-129.9 -3.5,-13.5 -6.9,-27 -10.4,-40.5"
         style="fill:#ae3620;fill-opacity:1;fill-rule:nonzero;stroke:none"
         id="path190" /><path
         d="m 19765.4,10250.5 v 0 0 c -58.8,43.3 -117.5,86.6 -176.2,129.9 l 56.5,139.3 c 7.8,17.3 12,26.4 11,27 82.6,32.4 185.3,65.4 305.2,88.2 1.9,-0.6 3.8,-1.1 5.7,-1.6 64.5,-15.8 141.6,-29.1 229.1,-33.3 19.6,-0.9 38.7,-1.4 57.5,-1.4 115.1,0 214,16.6 290.7,35.6 6.3,1.6 12.4,3.8 18.2,6.6 125.9,-21.3 230.2,-53.1 306.9,-80.8 -1,-0.6 3.2,-9.7 11,-27.1 18.8,-46.4 37.7,-92.8 56.5,-139.1 v 0 l -197.5,-140.5 -974.6,-2.8"
         style="fill:#d54a26;fill-opacity:1;fill-rule:nonzero;stroke:none"
         id="path192" /><path
         d="m 20937.5,10393.8 v 0 0 m -56.5,139.1 c -7.8,17.4 -12,26.5 -11,27.1 v 0 c 3.7,-9 7.3,-18 11,-27.1"
         style="fill:#bd3c21;fill-opacity:1;fill-rule:nonzero;stroke:none"
         id="path194" /><path
         d="m 19765.4,10250.5 -176.2,129.9 c 58.7,-43.3 117.4,-86.6 176.2,-129.9 v 0 m -119.7,269.2 11,27 v 0 c 1,-0.6 -3.2,-9.7 -11,-27"
         style="fill:#bd3c21;fill-opacity:1;fill-rule:nonzero;stroke:none"
         id="path196" /><path
         d="m 19155.1,10450 c 42.4,-81.6 110.3,-188.2 218.2,-286.7 217.3,-198.13 460,-238.72 458.4,-243.3 -1.8,-4.86 -279,29.62 -510,248.3 -101.5,96.1 -162.1,197.5 -197.6,269.7 10.3,4 20.7,8 31,12"
         style="fill:#c54021;fill-opacity:1;fill-rule:nonzero;stroke:none"
         id="path198" /><path
         d="m 21343.4,10443.3 c -42.5,-81.6 -110.3,-188.1 -218.3,-286.6 -217.2,-198.19 -460,-238.78 -458.3,-243.37 1.7,-4.86 279,29.62 510,248.37 101.4,96 162.1,197.4 197.5,269.7 -10.3,4 -20.6,7.9 -30.9,11.9"
         style="fill:#c54021;fill-opacity:1;fill-rule:nonzero;stroke:none"
         id="path200" /><path
         d="m 19804,8779.34 c 0,-37.18 -30.1,-67.32 -67.3,-67.32 -37.2,0 -67.3,30.14 -67.3,67.32 0,37.18 30.1,67.33 67.3,67.33 37.2,0 67.3,-30.15 67.3,-67.33"
         style="fill:#9b2a1f;fill-opacity:1;fill-rule:nonzero;stroke:none"
         id="path202" /><path
         d="m 20854,8779.34 c 0,-37.18 -30.1,-67.32 -67.3,-67.32 -37.2,0 -67.3,30.14 -67.3,67.32 0,37.18 30.1,67.33 67.3,67.33 37.2,0 67.3,-30.15 67.3,-67.33"
         style="fill:#9b2a1f;fill-opacity:1;fill-rule:nonzero;stroke:none"
         id="path204" /><path
         d="m 18781.9,8815.16 c -15.6,107.99 -45.7,242.69 -105.2,389.84 -38.5,95.21 -81.8,176.92 -123.4,245 53.4,-66.2 116.7,-158.15 170,-276.67 67.9,-150.7 94,-287.48 104.6,-384.46 -15.3,8.76 -30.7,17.53 -46,26.29"
         style="fill:#c54021;fill-opacity:1;fill-rule:nonzero;stroke:none"
         id="path206" /><path
         d="m 21720.5,8815.16 c 15.6,107.99 45.7,242.69 105.2,389.84 38.5,95.21 81.8,176.92 123.3,245 -53.3,-66.2 -116.6,-158.15 -170,-276.67 -67.8,-150.7 -93.9,-287.48 -104.5,-384.46 15.3,8.76 30.7,17.53 46,26.29"
         style="fill:#c54021;fill-opacity:1;fill-rule:nonzero;stroke:none"
         id="path208" /><path
         d="m 19443.3,11846.7 c 1.8,62.3 -6.1,150 -61.6,223 -72.7,95.7 -174.9,97.7 -199,175.3 -11.7,37.6 -7,99.3 80.4,200 -5.4,3 -106.5,60.5 -108,150 -1.6,91.5 101.4,191.4 246.6,185 -61.4,55.6 -97.5,132.6 -81.7,200 24,102.7 168.8,185.5 330,135 -44,78.9 -36.5,169.4 10,215 61.6,60.4 202,51.8 279.5,-60 -3.9,23.9 -13.2,99.5 30.5,145 58.9,61.3 202.3,55.7 320,-55 83.6,91.4 198.8,103.3 255,55 43.5,-37.4 42.5,-103.1 41.8,-120 73.4,76.6 189.8,80.8 258.2,20 54.7,-48.6 72.5,-133 41.7,-208.3 149.9,26.5 281.8,-50 313.3,-156.7 27.3,-92.5 -29.5,-178.1 -40,-193.3 106.7,-14.8 182,-92.9 184.9,-175.5 2.5,-70.3 -48.6,-120.5 -59.9,-131.2 29.8,-51.2 62.8,-126.7 35,-190 -31.6,-72.1 -116.2,-69.7 -173.3,-140 -35.9,-44.2 -67.5,-125.2 -30,-286.7 -314.8,-75.1 -629.5,-150.2 -944.2,-225.4 -243.1,79.6 -486.1,159.2 -729.2,238.8"
         style="fill:#33191a;fill-opacity:1;fill-rule:nonzero;stroke:none"
         id="path210" /><path
         d="m 19813.7,10824.2 c 6.2,-87.7 7.5,-192.2 -3.7,-309.2 -11.2,-117.3 -32.2,-219.9 -55,-305 169.4,-95 338.9,-190 508.3,-285 l 501.7,300 c -16.3,102.6 -28.9,218.3 -33.2,345.4 -3.6,103.4 -1.2,199.5 4.6,286.9 -307.5,-11.1 -615.1,-22.1 -922.7,-33.1"
         style="fill:#ad434b;fill-opacity:1;fill-rule:nonzero;stroke:none"
         id="path212" /><path
         d="m 19813.7,10824.2 c 26.8,-39 66.5,-96.4 115.3,-166.2 50.7,-72.4 59.8,-84.7 71,-98 0,0 78.2,-92.7 210,-150 233.8,-101.6 505,12.4 530,23.3 -3.3,164.5 -6.7,328.9 -10,493.4 -305.4,-34.2 -610.9,-68.4 -916.3,-102.5"
         style="fill:#702d31;fill-opacity:1;fill-rule:nonzero;stroke:none"
         id="path214" /><path
         d="m 20973.3,11824.8 c -23.4,-237.8 -46.8,-475.6 -70.2,-713.4 -2,-20.5 -9.5,-40 -21.7,-56.6 l -281.7,-383.8 c -13.4,-18.3 -32.8,-31.3 -54.8,-36.8 -89.2,-22.1 -208.4,-40.9 -348.2,-34.2 -87.5,4.2 -164.6,17.5 -229.1,33.3 -24.2,5.9 -45.1,20.9 -58.5,41.9 -91.4,142.7 -182.8,285.4 -274.2,428.2 -9.8,15.3 -15.8,32.7 -17.5,50.8 -21.4,223.5 -42.7,447.1 -64.1,670.6 7.4,20.7 14.9,42.8 22.2,66.2 25.3,81 48.6,177.4 62.3,287.2 15.2,121.8 14.9,229.9 8.9,318.5 186.3,-26.7 403.9,-45.4 646.6,-43.4 212.7,1.8 405.2,19.3 573.4,43.4 -6.5,-96.1 -5.8,-220.7 18.9,-363 17.6,-102.2 43.8,-191.1 70.8,-264.8 5.6,-15.4 11.3,-30.1 16.9,-44.1"
         style="fill:#ad434b;fill-opacity:1;fill-rule:nonzero;stroke:none"
         id="path216" /><path
         d="m 20052.5,11647.4 c 0,-45.5 -27.5,-82.4 -61.5,-82.4 -34,0 -61.5,36.9 -61.5,82.4 0,45.6 27.5,82.5 61.5,82.5 34,0 61.5,-36.9 61.5,-82.5"
         style="fill:#271616;fill-opacity:1;fill-rule:nonzero;stroke:none"
         id="path218" /><path
         d="m 20016.6,11683.6 c 0,-5.9 -4.9,-10.8 -10.8,-10.8 -6,0 -10.8,4.9 -10.8,10.8 0,6 4.8,10.8 10.8,10.8 5.9,0 10.8,-4.8 10.8,-10.8"
         style="fill:#ffffff;fill-opacity:1;fill-rule:nonzero;stroke:none"
         id="path220" /><path
         d="m 19562.5,11866.2 c -21.7,16.7 -81.7,58.2 -148.1,44.4 -101.8,-21.2 -145.4,-156.8 -150.7,-230.8 -11.2,-157.4 130.5,-323.3 354.8,-416.4 -18.7,201 -37.3,401.9 -56,602.8"
         style="fill:#ad434b;fill-opacity:1;fill-rule:nonzero;stroke:none"
         id="path222" /><path
         d="m 19532.8,11435.9 c -15.9,10.4 -127.9,84.8 -156.2,180.1 -5.8,19.6 -15.6,52.7 -3.3,90.8 7.3,22.7 19.7,38.8 28.5,48.4 13.6,9.4 24.9,12.7 34.3,12.7 2.4,0 4.7,-0.2 6.9,-0.6 80.5,-14.8 88.7,-286.5 89.8,-331.4"
         style="fill:#93343c;fill-opacity:1;fill-rule:nonzero;stroke:none"
         id="path224" /><path
         d="m 19450.7,11779.8 c 54.1,-4.6 82.2,-132.2 86.6,-153.7 21,-101.9 1.4,-190.4 -4.5,-190.2 -5.3,0.2 -0.2,72.3 -25.3,184.7 -23.5,105.8 -48.3,133.5 -71.1,137.6 -16.5,3 -33.4,-6.1 -34.6,-3 -1.6,4.1 24.8,26.6 48.9,24.6"
         style="fill:#78252c;fill-opacity:1;fill-rule:nonzero;stroke:none"
         id="path226" /><path
         d="m 19444.9,11626.5 c -30.5,-46.2 -5,-110.4 -0.5,-110.1 4.5,0.3 -14.3,62 19.8,97.4 19.3,20.1 50.7,26.7 50,43.9 0,0.8 -0.4,7 -4.8,10 -12.1,8.1 -47,-14.7 -64.5,-41.2"
         style="fill:#78252c;fill-opacity:1;fill-rule:nonzero;stroke:none"
         id="path228" /><path
         d="m 20958.1,11866.2 c 21.7,16.7 81.7,58.2 148.1,44.4 101.8,-21.2 145.4,-156.8 150.7,-230.8 11.2,-157.4 -130.5,-323.3 -354.8,-416.4 18.7,201 37.3,401.9 56,602.8"
         style="fill:#ad434b;fill-opacity:1;fill-rule:nonzero;stroke:none"
         id="path230" /><path
         d="m 20987.8,11435.9 c 1.1,44.9 9.3,316.6 89.8,331.4 2.2,0.4 4.5,0.6 6.9,0.6 9.4,0 20.7,-3.3 34.3,-12.7 8.8,-9.6 21.2,-25.7 28.5,-48.4 12.3,-38.1 2.5,-71.2 -3.3,-90.8 -28.3,-95.3 -140.3,-169.7 -156.2,-180.1"
         style="fill:#93343c;fill-opacity:1;fill-rule:nonzero;stroke:none"
         id="path232" /><path
         d="m 21069.9,11779.8 c -54.1,-4.6 -82.1,-132.2 -86.6,-153.7 -21,-101.9 -1.4,-190.4 4.5,-190.2 5.3,0.2 0.2,72.3 25.3,184.7 23.5,105.8 48.4,133.5 71.1,137.6 16.5,3 33.4,-6.1 34.6,-3 1.6,4.1 -24.8,26.6 -48.9,24.6"
         style="fill:#78252c;fill-opacity:1;fill-rule:nonzero;stroke:none"
         id="path234" /><path
         d="m 21075.7,11626.5 c 30.5,-46.2 5,-110.4 0.5,-110.1 -4.5,0.3 14.3,62 -19.8,97.4 -19.3,20.1 -50.7,26.7 -50,43.9 0,0.8 0.4,7 4.8,10 12.1,8.1 47,-14.7 64.5,-41.2"
         style="fill:#78252c;fill-opacity:1;fill-rule:nonzero;stroke:none"
         id="path236" /><path
         d="m 19740,11966.7 c -23.7,-24.5 -22.9,-59.7 -5,-76.7 12.2,-11.5 31.7,-14.2 50,-8.3 14.9,14 61.5,54.5 135,63.3 76.2,9.2 132.7,-21.4 150,-31.7 16,-7.9 34.1,-7.4 45,1.7 15.8,13.2 17.4,45.1 -5.1,66.5 -17.6,18.1 -65.5,62.3 -139.9,73.5 -130.1,19.6 -222.1,-79.6 -230,-88.3"
         style="fill:#271616;fill-opacity:1;fill-rule:nonzero;stroke:none"
         id="path238" /><path
         d="m 20771.1,11966.7 c 23.8,-24.5 23,-59.7 5,-76.7 -12.1,-11.5 -31.7,-14.2 -50,-8.3 -14.8,14 -61.5,54.5 -135,63.3 -76.1,9.2 -132.7,-21.4 -150,-31.7 -15.9,-7.9 -34,-7.4 -45,1.7 -15.7,13.2 -17.4,45.1 5.2,66.5 17.5,18.1 65.5,62.3 139.8,73.5 130.2,19.6 222.2,-79.6 230,-88.3"
         style="fill:#271616;fill-opacity:1;fill-rule:nonzero;stroke:none"
         id="path240" /><path
         d="m 20096.3,11767.5 c 3.5,9.3 -44.7,45.9 -103.6,54.9 -15.4,2.4 -75.4,10.6 -131.4,-27.4 -79.8,-54.1 -79,-152.5 -78.8,-160 35.2,62.4 88.2,129.1 165,145 75,15.5 144.6,-23.3 148.8,-12.5"
         style="fill:#271616;fill-opacity:1;fill-rule:nonzero;stroke:none"
         id="path242" /><path
         d="m 20422.7,11767.5 c -3.6,9.3 44.6,45.9 103.5,54.9 15.5,2.4 75.4,10.6 131.5,-27.4 79.7,-54.1 78.9,-152.5 78.7,-160 -35.2,62.4 -88.2,129.1 -165,145 -74.9,15.5 -144.6,-23.3 -148.7,-12.5"
         style="fill:#271616;fill-opacity:1;fill-rule:nonzero;stroke:none"
         id="path244" /><path
         d="m 20586.8,11647.4 c 0,-45.5 -27.5,-82.4 -61.5,-82.4 -34,0 -61.5,36.9 -61.5,82.4 0,45.6 27.5,82.5 61.5,82.5 34,0 61.5,-36.9 61.5,-82.5"
         style="fill:#271616;fill-opacity:1;fill-rule:nonzero;stroke:none"
         id="path246" /><path
         d="m 20558.3,11683.6 c 0,-5.9 -4.9,-10.8 -10.8,-10.8 -5.9,0 -10.8,4.9 -10.8,10.8 0,6 4.9,10.8 10.8,10.8 5.9,0 10.8,-4.8 10.8,-10.8"
         style="fill:#ffffff;fill-opacity:1;fill-rule:nonzero;stroke:none"
         id="path248" /><path
         d="m 20175,11411.8 c 2.4,0.9 4.7,1.4 7.2,1.7 25.3,3.1 54.2,5.2 86.1,4.8 29.2,-0.3 55.9,-2.6 79.4,-5.7 5.1,-0.7 9.8,-2.5 14,-5.3 13.1,-8.7 32.8,-24.7 48.3,-50.6 10.6,-17.7 16.2,-34.8 19.2,-49.1 3.3,-16 -4.9,-32.1 -20,-38.6 -32.4,-14 -81.2,-29.5 -141.7,-30.2 -68.4,-0.9 -123,17.5 -157,32.8 -13.6,6.2 -21.7,20.4 -19.9,35.2 2,17.1 8.1,39.8 24.4,61.5 20.6,27.4 47,39 60,43.5"
         style="fill:#78252c;fill-opacity:1;fill-rule:nonzero;stroke:none"
         id="path250" /><path
         d="m 20594.9,11290.7 c 13,14.2 33.8,14.8 45.1,4.3 8.4,-7.8 11,-21.4 6.3,-33.7 -34.5,-43 -87.8,-96.2 -165,-133.8 -217.4,-105.7 -450.8,-2.7 -449.6,5.7 1.2,9 269.3,-83.1 464.2,55.2 50.6,35.9 82.3,77.4 99,102.3"
         style="fill:#78252c;fill-opacity:1;fill-rule:nonzero;stroke:none"
         id="path252" /><path
         d="m 20172.5,10992.5 c 32.2,-9 77.2,-17.9 131.3,-17.5 60.8,0.4 110.5,12.5 144.4,23.6 7,-0.3 13.1,-4 14.9,-9.2 2.7,-7.4 -2.9,-18.1 -14.3,-20.6 -28.8,-9.5 -79.9,-22.4 -143.8,-16.3 -60.5,5.8 -106.3,26 -132.5,40"
         style="fill:#78252c;fill-opacity:1;fill-rule:nonzero;stroke:none"
         id="path254" /><path
         d="m 20956.4,11868.9 c -48.3,76 -114.6,204.6 -134,374.9 -8.5,74.6 -6.2,141.1 0.1,196.2 -161.5,-29.8 -355.2,-52.6 -574.1,-52.6 -41.9,0 -84.7,0.8 -128.4,2.6 -153,6.3 -292.7,23.2 -416.7,45 0.6,-52.2 -2.2,-110.1 -10.8,-172.5 -21.2,-153.5 -70.1,-279.1 -117,-371.5 25.3,81 48.6,177.4 62.3,287.2 9.2,73.7 12.7,142.5 12.7,204.9 0,40.7 -1.4,78.6 -3.8,113.6 177.1,-25.4 382.6,-43.5 611,-43.5 11.8,0 23.7,0 35.6,0.1 212.7,1.8 405.2,19.3 573.4,43.4 -2.1,-31.5 -3.5,-66.1 -3.5,-103.4 0,-76.4 5.8,-164 22.4,-259.6 17.6,-102.2 43.8,-191.1 70.8,-264.8"
         style="fill:#8d3038;fill-opacity:1;fill-rule:nonzero;stroke:none"
         id="path256" /></g></g></svg>
