<?xml version="1.0" encoding="UTF-8" standalone="no"?>
<!-- Created with Inkscape (http://www.inkscape.org/) -->

<svg
   version="1.1"
   id="svg2"
   xml:space="preserve"
   width="760"
   height="759.99329"
   viewBox="0 0 760.00001 759.9933"
   xmlns="http://www.w3.org/2000/svg"
   xmlns:svg="http://www.w3.org/2000/svg"><defs
     id="defs6"><clipPath
       clipPathUnits="userSpaceOnUse"
       id="clipPath22"><path
         d="m 7587.42,4596.1 c 0,-1574.1 -1275.99,-2850 -2850,-2850 -1574.01,0 -2850,1275.9 -2850,2850 0,1573.96 1275.99,2849.95 2850,2849.95 1574.01,0 2850,-1275.99 2850,-2849.95"
         id="path20" /></clipPath></defs><path
     d="m 760.00001,379.99317 c 0,209.88 -170.13202,380 -380.00002,380 C 170.132,759.99317 3.0267992e-6,589.87317 3.0267992e-6,379.99317 3.0267992e-6,170.13187 170.132,-1.2978184e-4 379.99999,-1.2978184e-4 c 209.868,0 380.00002,170.13199978184 380.00002,379.99329978184"
     style="fill:#f4bf96;fill-opacity:1;fill-rule:nonzero;stroke:none;stroke-width:0.133333"
     id="path14" /><g
     id="g16"
     transform="matrix(0.13333333,0,0,-0.13333333,-251.65599,992.80647)"><g
       id="g18"
       clip-path="url(#clipPath22)"><path
         d="m 3829.78,3243.3 c -68.08,-2.6 -558.1,-23.2 -789.78,-108.3 -57.92,-21.3 -96.49,-45.4 -128.05,-75.5 -35.63,-34 -67.54,-80.5 -116.16,-240.2 -20.45,-67.2 -45.09,-158.4 -65.79,-269.3 153.15,-147.5 890.96,-826.6 2040,-830 1053.6,-3.1 1755.31,564 1932.73,716.6 -18.8,91.5 -43.2,208 -72.73,343.4 -33.93,155.5 -46.7,201.2 -85,250 -66.9,85.1 -170.92,105.8 -270.3,123.4 -168.02,29.8 -397.72,64.5 -681.67,89.9 -587.76,0 -1175.51,0 -1763.25,0"
         style="fill:#ef5e36;fill-opacity:1;fill-rule:nonzero;stroke:none"
         id="path24" /><path
         d="m 3308.18,2104.9 c -22.41,134.8 -58.67,291.7 -118.18,461.8 -44.46,127 -94.17,239.5 -143.33,336.6 50.16,-76.1 101.98,-166.7 148.7,-272 92.54,-208.6 132.24,-400.7 149.62,-547.6 -12.28,7.1 -24.54,14.2 -36.81,21.2"
         style="fill:#c54021;fill-opacity:1;fill-rule:nonzero;stroke:none"
         id="path26" /><path
         d="m 6097.76,2019.3 c 11.97,200.4 52.06,363.6 89.74,480.7 73.49,228.4 177.17,403.7 177.54,403.5 l -0.04,-0.2 c -61.44,-144.4 -101.67,-296.9 -153.71,-445 -32.54,-92.6 -66.49,-229.9 -66.29,-418.3 -15.75,-6.9 -31.49,-13.8 -47.24,-20.7"
         style="fill:#c54021;fill-opacity:1;fill-rule:nonzero;stroke:none"
         id="path28" /><path
         d="m 3975,3270 -145.22,-26.7 C 4044.81,3141 4561.84,2934.1 5165,3080 c 167.41,40.5 310.41,100.7 428.03,163.3 -51.01,8.9 -102.02,17.8 -153.03,26.7 -91.2,-31.3 -191.32,-59.1 -300,-80 -478.83,-92.1 -894.36,-6.5 -1165,80"
         style="fill:#9b2a1f;fill-opacity:1;fill-rule:nonzero;stroke:none"
         id="path30" /><path
         d="m 4380,3570 c -45.52,50.5 -85.68,63.7 -113.34,66.7 -70.45,7.6 -104.11,-45.7 -204.42,-66.7 -51.43,-10.7 -89.62,-6.5 -148.91,0 -129.02,14.2 -167.07,54.4 -283.23,74 -44.54,7.5 -111.42,13.8 -196.76,2.7 35.37,99.5 24.34,163.1 6.29,203.5 -21.29,47.7 -57.4,74.4 -59.63,133.1 -1.47,38.8 12.71,68.5 23.33,90 44.62,90.6 106.17,85.1 150,160 44.81,76.6 28.12,163.8 25,180 -14.34,74.8 -49.72,78.8 -83.23,179.6 -14.77,44.5 -31.39,94.5 -25.1,157.1 2.79,27.7 10.16,59 83.33,196.7 28.19,53 52.65,96.4 70,126.6 -47.23,48.6 -161.99,179.9 -183.33,376.7 -24.14,222.6 85.68,390.2 137.11,464.6 147.93,213.8 258.92,168.43 534.49,416.77 242.38,218.42 235.53,324.73 426.72,402.37 64.82,26.33 275.03,113.4 439.16,0.54 129.27,-88.88 187.47,-272.4 147.52,-464.28 28.44,42.3 105.28,143.83 220,155 189.49,18.44 332.55,-224.26 355.05,-263.96 C 5875.63,5851.2 5657.74,5639.9 5840,5420 c 76.05,-91.7 198.69,-157.2 224.74,-316.7 1.53,-9.3 7.83,-50.3 1.93,-103.3 -25.18,-225.9 -226.67,-261.7 -237.75,-414.8 -12.8,-176.9 247.33,-252.1 224.41,-461.9 -4.69,-42.9 -20.41,-83.9 -16.67,-163.3 3.85,-81.3 25.48,-147 43.34,-190 -85.71,14.9 -158.34,20.9 -213.34,23.3 -49.6,2.3 -74.79,3.2 -93.32,-3.3 -82.67,-29.1 -82.97,-117.2 -171.91,-166.8 -40.81,-22.8 -78.8,-25.5 -107.14,-27.5 -67.7,-4.8 -117.32,14.6 -162.66,33.9 -51.54,21.9 -97.55,43.9 -158.29,30.4 -22.77,-5.1 -51.81,-16 -83.34,-41 -236.67,-16.4 -473.33,-32.7 -710,-49"
         style="fill:#33191a;fill-opacity:1;fill-rule:nonzero;stroke:none"
         id="path32" /><path
         d="m 3913.75,5258.7 c 31.06,-69.5 49.99,-129.3 61.25,-169.6 5.15,14.5 10.29,29 15.44,43.5 -13.08,41.7 -35.2,101.2 -72.94,167.4 -39.28,68.9 -83.9,124.8 -87.5,122.5 -3.75,-2.4 40.06,-66 83.75,-163.8"
         style="fill:#161311;fill-opacity:1;fill-rule:nonzero;stroke:none"
         id="path34" /><path
         d="m 5469.26,5265.5 c 15.35,81.6 46.73,132.1 70.74,162 18.7,23.3 45.73,49.9 48.75,47.5 3.15,-2.5 -21.34,-35.5 -40,-66.3 -24.02,-39.6 -52.06,-98.2 -68.75,-180.9 -3.58,12.6 -7.16,25.1 -10.74,37.7"
         style="fill:#161311;fill-opacity:1;fill-rule:nonzero;stroke:none"
         id="path36" /><path
         d="m 5667.21,3682.1 c 4.11,238.4 -51.07,396.6 -105.54,499.6 -24.54,46.3 -42.07,68.5 -58.34,120 -71.34,225.8 62.87,442 66.67,440.8 3.46,-1.1 -104.58,-180.9 -48.33,-392.5 16.87,-63.5 38.54,-92.2 67.86,-151 48.94,-98.2 103.07,-248.1 114.05,-464.9 -12.12,-17.3 -24.25,-34.6 -36.37,-52"
         style="fill:#161311;fill-opacity:1;fill-rule:nonzero;stroke:none"
         id="path38" /><path
         d="m 5357.43,3619 c 18.39,49.4 39.23,122.2 41.05,211.1 2.47,121.4 -31.71,212.9 -28.81,213.6 2.86,0.7 39.24,-87.3 45.33,-201.2 5.21,-97.5 -13.66,-178.4 -31.26,-232.9 -8.77,3.1 -17.54,6.2 -26.31,9.4"
         style="fill:#161311;fill-opacity:1;fill-rule:nonzero;stroke:none"
         id="path40" /><path
         d="m 3805.13,3592.1 c -5.03,239.9 51.01,382.5 105.74,469.6 17.71,28.1 43.02,62.8 58.33,120 44.75,166.9 -50.55,321.1 -54.2,320 -3.22,-1.1 67.61,-121.9 35.87,-271.7 -15.66,-73.9 -49.17,-121.3 -67.86,-151 -55.6,-88.5 -113.18,-232.8 -113.76,-474.9 11.96,-4 23.92,-8 35.88,-12"
         style="fill:#161311;fill-opacity:1;fill-rule:nonzero;stroke:none"
         id="path42" /><path
         d="m 4105,3582.5 c -46.98,96.7 -43.7,163.6 -30.94,207.6 11.8,40.7 28.63,51.3 44.69,106.1 26.57,90.8 11.45,167.5 8.75,167.5 -2.56,0.1 6.25,-68.8 -23.75,-156.2 -15.79,-46 -29.81,-60.6 -41.86,-88.9 -19.98,-47 -30.59,-122.5 19.15,-244.1 7.98,2.7 15.97,5.3 23.96,8"
         style="fill:#161311;fill-opacity:1;fill-rule:nonzero;stroke:none"
         id="path44" /><path
         d="m 4391.25,4099 c 5.27,-64.8 10.58,-157.4 9.15,-269.1 -1.74,-136.1 -2.61,-204.2 -20.4,-259.9 -58.05,-181.7 -286.75,-266.2 -405,-300 217.46,-77.8 588.31,-174.3 1035,-110 165.54,23.8 309.8,65.2 430,110 -55.67,5.5 -202.22,27.6 -300,145 -59.35,71.2 -74.39,145.9 -95,255 -18.14,96 -34.97,243.7 -11.67,429 -214.02,0 -428.05,0 -642.08,0"
         style="fill:#ad434b;fill-opacity:1;fill-rule:nonzero;stroke:none"
         id="path46" /><path
         d="m 4391.25,4099 c 34.08,-65.3 104.27,-178.2 233.75,-274 170.22,-125.9 344.47,-149.4 420,-155 -3.89,143 -7.78,286 -11.67,429 h -642.08"
         style="fill:#702d31;fill-opacity:1;fill-rule:nonzero;stroke:none"
         id="path48" /><path
         d="m 5480,5227.8 c -3.6,-12.8 -7.2,-25.6 -10.7,-38.4 -57,-207.5 -86.31,-378.5 -102.6,-499.4 -27.3,-201.4 -23.5,-300.4 -105.9,-412.1 -71.11,-96.5 -165.5,-146.9 -267.5,-201.2 -98,-52.3 -182.2,-95.9 -293.3,-90 -18.5,0.9 -68.9,4.9 -200,63.3 -188.1,83.7 -282.1,125.6 -346.7,210 -65.7,86 -53.8,149.3 -90.7,395 -14.9,99.5 -38.6,234.2 -77.7,394.2 -3.2,13.1 -6.5,26.4 -9.9,39.9 23.7,75.1 65.1,161.1 141.7,230.9 90.1,82.1 145.9,66 220.9,149.5 97.6,108.6 61.1,200.2 139.1,237.2 40.61,19.3 71.41,4.3 117.63,-10.7 34.35,-11.1 77.22,-22.2 138.97,-19.3 48.2,2.2 151.3,7.1 223.4,83.3 67.2,71 70,164.4 69.5,195 77.9,-68.1 176.7,-168.9 267.1,-308.3 103.9,-160.2 157.6,-311.3 186.7,-418.9"
         style="fill:#ad434b;fill-opacity:1;fill-rule:nonzero;stroke:none"
         id="path50" /><path
         d="m 3984.9,5049.2 v 0 c -3.2,13.1 -6.5,26.4 -9.9,39.9 23.7,75.1 65.1,161.1 141.7,230.9 90.1,82.1 145.9,66 220.9,149.5 97.6,108.6 61.1,200.2 139.1,237.2 13.75,6.5 26.39,9.1 38.87,9.1 24.38,0 48.2,-9.9 78.76,-19.8 30.55,-9.9 67.86,-19.8 119.2,-19.8 6.37,0 12.95,0.2 19.77,0.5 48.2,2.2 151.3,7.1 223.4,83.3 63.79,67.4 69.55,155 69.54,189.9 0,1.8 -0.02,3.5 -0.04,5.1 77.9,-68.1 176.7,-168.9 267.1,-308.3 103.9,-160.2 157.6,-311.3 186.7,-418.9 v 0 c -3.6,-12.8 -7.2,-25.6 -10.7,-38.4 v 0 c -77.5,153.2 -131.6,265 -171,348.5 -20.5,43.4 -46.7,99.9 -98.3,164.6 -47.81,59.9 -96.9,101.3 -132.1,127.5 -23.9,-43.2 -77.1,-123.2 -175.4,-170 -14.91,-7.1 -87,-40.1 -179.15,-40.1 -27.19,0 -56.12,2.8 -85.85,10.1 -55,13.4 -85.97,35.4 -115.77,35.4 -8.01,0 -15.94,-1.6 -24.23,-5.4 -41.3,-18.8 -41.7,-69 -65,-127.5 -47,-117.7 -131.9,-130.6 -262.4,-257.5 -47,-45.7 -112.3,-118.2 -175.2,-225.8"
         style="fill:#8d3038;fill-opacity:1;fill-rule:nonzero;stroke:none"
         id="path52" /><path
         d="m 4844.45,5350.5 c -19.69,-13 -22.03,-39.3 -9.45,-53 10.97,-12 32.77,-13.7 48.33,-0.8 66.67,57.6 168.05,125.1 283.34,113.3 122.19,-12.5 205.15,-108.6 212.08,-100 7.05,8.7 -68.48,121.2 -188.75,153.3 -166.12,44.5 -320.48,-90.3 -345.55,-112.8"
         style="fill:#271616;fill-opacity:1;fill-rule:nonzero;stroke:none"
         id="path54" /><path
         d="m 4575.3,5350.5 c 19.7,-13 22.03,-39.3 9.45,-53 -10.97,-12 -32.77,-13.7 -48.33,-0.8 -66.67,57.6 -168.05,125.1 -283.33,113.3 -122.2,-12.5 -205.16,-108.6 -212.09,-100 -7.05,8.7 68.48,121.2 188.75,153.3 166.12,44.5 320.48,-90.3 345.55,-112.8"
         style="fill:#271616;fill-opacity:1;fill-rule:nonzero;stroke:none"
         id="path56" /><path
         d="m 4162.5,5037.5 c 6.81,103.2 89.38,184.5 187.5,190 105.95,5.9 202.27,-78.2 210,-190 -26.49,87 -106.9,147 -197.5,147.5 -91.5,0.5 -173.24,-59.7 -200,-147.5"
         style="fill:#271616;fill-opacity:1;fill-rule:nonzero;stroke:none"
         id="path58" /><path
         d="m 4179.18,5106.1 c -77.02,32.3 -112.95,45.7 -114.18,43.1 -1.24,-2.7 32.49,-21.7 107.68,-60.1 l 6.5,17"
         style="fill:#271616;fill-opacity:1;fill-rule:nonzero;stroke:none"
         id="path60" /><path
         d="m 4869.12,5037.5 c 6.81,103.2 89.37,184.5 187.5,190 105.95,5.9 202.27,-78.2 210,-190 -26.49,87 -106.9,147 -197.5,147.5 -91.51,0.5 -173.24,-59.7 -200,-147.5"
         style="fill:#271616;fill-opacity:1;fill-rule:nonzero;stroke:none"
         id="path62" /><path
         d="m 5242.63,5106.1 c 77.02,32.3 112.95,45.7 114.18,43.1 1.24,-2.7 -32.49,-21.7 -107.67,-60.1 l -6.51,17"
         style="fill:#271616;fill-opacity:1;fill-rule:nonzero;stroke:none"
         id="path64" /><path
         d="m 4455,4997.1 c 0,-50.9 -28.54,-92.1 -63.75,-92.1 -35.21,0 -63.75,41.2 -63.75,92.1 0,50.8 28.54,92 63.75,92 35.21,0 63.75,-41.2 63.75,-92"
         style="fill:#271616;fill-opacity:1;fill-rule:nonzero;stroke:none"
         id="path66" /><path
         d="m 4425,5035.8 c 0,-7.3 -5.97,-13.3 -13.33,-13.3 -7.37,0 -13.34,6 -13.34,13.3 0,7.4 5.97,13.4 13.34,13.4 7.36,0 13.33,-6 13.33,-13.4"
         style="fill:#ffffff;fill-opacity:1;fill-rule:nonzero;stroke:none"
         id="path68" /><path
         d="m 5090,4997.1 c 0,-50.9 -28.54,-92.1 -63.75,-92.1 -35.21,0 -63.75,41.2 -63.75,92.1 0,50.8 28.54,92 63.75,92 35.21,0 63.75,-41.2 63.75,-92"
         style="fill:#271616;fill-opacity:1;fill-rule:nonzero;stroke:none"
         id="path70" /><path
         d="m 5060,5035.8 c 0,-7.3 -5.97,-13.3 -13.33,-13.3 -7.37,0 -13.34,6 -13.34,13.3 0,7.4 5.97,13.4 13.34,13.4 7.36,0 13.33,-6 13.33,-13.4"
         style="fill:#ffffff;fill-opacity:1;fill-rule:nonzero;stroke:none"
         id="path72" /><path
         d="m 4695.65,4857.8 c -42.66,-81.2 -85.32,-162.4 -127.98,-243.6 -3.18,-6.1 -1.33,-13.6 4.41,-17.4 24.35,-15.9 76.71,-43.9 146.66,-40.6 57.62,2.6 100.43,25.2 123.15,40 5.77,3.8 7.7,11.3 4.52,17.4 -42.35,81.4 -84.69,162.8 -127.03,244.2 -5,9.6 -18.71,9.6 -23.73,0"
         style="fill:#78252c;fill-opacity:1;fill-rule:nonzero;stroke:none"
         id="path74" /><path
         d="m 4890,4505 c 42.51,27.3 68.37,62.4 82.5,85 9.37,12 26.17,12 33.75,3.7 7.14,-7.7 6.5,-23.1 -4.58,-32 -18.76,-26.8 -53.2,-68.1 -108.34,-96.7 -171.12,-88.7 -375.15,32 -373.33,38.7 1.84,6.9 216.61,-97.1 370,1.3"
         style="fill:#78252c;fill-opacity:1;fill-rule:nonzero;stroke:none"
         id="path76" /></g></g></svg>
