<?xml version="1.0" encoding="UTF-8" standalone="no"?>
<!-- Created with Inkscape (http://www.inkscape.org/) -->

<svg
   version="1.1"
   id="svg2"
   xml:space="preserve"
   width="760"
   height="759.99329"
   viewBox="0 0 760.00001 759.9933"
   xmlns="http://www.w3.org/2000/svg"
   xmlns:svg="http://www.w3.org/2000/svg"><defs
     id="defs6"><clipPath
       clipPathUnits="userSpaceOnUse"
       id="clipPath416"><path
         d="m 15356.7,4596.1 c 0,-1574.1 -1276,-2850 -2850,-2850 -1574,0 -2850,1275.9 -2850,2850 0,1573.96 1276,2849.95 2850,2849.95 1574,0 2850,-1275.99 2850,-2849.95"
         id="path414" /></clipPath></defs><path
     d="m 760.00006,379.99317 c 0,209.88 -170.1333,380 -380,380 -209.8666,0 -380.00000396025,-170.12 -380.00000396025,-380 C 5.603975e-5,170.13187 170.13346,-1.2978184e-4 380.00006,-1.2978184e-4 c 209.8667,0 380,170.13199978184 380,379.99329978184"
     style="fill:#b2d97e;fill-opacity:1;fill-rule:nonzero;stroke:none;stroke-width:0.133333"
     id="path408" /><g
     id="g410"
     transform="matrix(0.13333333,0,0,-0.13333333,-1286.2265,992.80647)"><g
       id="g412"
       clip-path="url(#clipPath416)"><path
         d="m 11189.1,3425.9 c -28.6,40.7 -67.6,106.7 -86.2,194 -33.1,155.8 19.9,278.7 160.4,616.8 26.9,64.6 84.4,203 162.7,393.3 -26.8,35.1 -65.7,92.4 -96.2,169.5 -80.5,203.1 -32.4,363.9 106.9,883.8 131.9,492.57 155,595.61 273.3,726.7 55.6,61.6 158.5,172.68 333.4,218.81 187.1,49.35 345.8,-4.88 407.1,-29.65 82.7,32.33 221.9,71.49 379.5,37.51 262.2,-56.55 402.5,-278.27 513.3,-453.34 83.5,-131.91 143.9,-420.53 264.8,-997.73 33.6,-160.9 72.3,-358.9 -38.1,-475.6 -34.8,-36.8 -75.2,-55.8 -104.1,-66.2 50,-188.5 110.4,-334.1 157.4,-433.8 97.5,-206.7 185,-317.3 198.1,-507.8 7.2,-104.6 -10.9,-192.1 -27.4,-249.8 -868.3,-8.8 -1736.6,-17.7 -2604.9,-26.5"
         style="fill:#64312b;fill-opacity:1;fill-rule:nonzero;stroke:none"
         id="path418" /><path
         d="m 11813.5,4610 c -54.6,8.4 -97.9,21.9 -128.5,33.3 -60.5,22.7 -71,37.2 -75,48.4 -9.6,26.6 9.4,55.4 25.4,79.8 39.2,59.7 77.3,118 121.3,185.2 v 0 0 0 0 0 c 0.9,-15.9 2.2,-33.1 3.9,-51.6 v 0 0 c 7.2,-79 21.9,-180.3 52.9,-295.1"
         style="fill:#2b1817;fill-opacity:1;fill-rule:nonzero;stroke:none"
         id="path420" /><path
         d="m 13085.8,4619.3 c 6.3,29.1 13.2,61.5 20.9,97.4 14.8,68.8 27.3,129.3 37.4,178.4 v 0 c 4.1,20 8.2,40.1 12.3,60.1 43.6,-66.5 81.4,-124.4 120.4,-183.7 16,-24.4 35,-53.2 25.3,-79.8 -3,-8.4 -12.4,-27.2 -75,-48.4 -31.6,-10.7 -79.4,-22.9 -141.3,-24"
         style="fill:#2b1817;fill-opacity:1;fill-rule:nonzero;stroke:none"
         id="path422" /><path
         d="m 11870,3456.7 c 6.7,-258.1 36.6,-576.9 120,-933.4 75.8,-323.9 177.1,-599.1 275,-820 130.2,0 260.4,0 390.7,0 150.1,296.9 315.6,724.4 362.4,1255 15.4,174.9 15.9,337.5 7.6,485 -385.3,4.5 -770.5,8.9 -1155.7,13.4"
         style="fill:#ffffff;fill-opacity:1;fill-rule:nonzero;stroke:none"
         id="path424" /><path
         d="m 13025.7,3655 -1129.9,-31.7 7.5,-180 c 59.5,-46.3 271.3,-199.7 580,-193.3 285.6,5.9 480.3,144.9 542.4,193.3 0,70.6 0,141.1 0,211.7"
         style="fill:#ef5e36;fill-opacity:1;fill-rule:nonzero;stroke:none"
         id="path426" /><path
         d="m 11537.9,3554 c -242.4,-82.7 -432.7,-160.1 -567.9,-219 -75.1,-32.7 -192.5,-85.6 -210,-180 -6.6,-35.9 5.5,-54.5 15,-120 10.8,-74.6 5.9,-128 -4,-234.6 -18.3,-196.8 -64.3,-399.4 -81,-470.4 120.1,-104.4 287.6,-228.4 505.4,-334.3 149.4,-72.6 288.9,-120.3 407.9,-152.4 86.7,91.1 173.4,182.3 260,273.4 l 73.4,562.5 -398.8,874.8"
         style="fill:#d6d4b8;fill-opacity:1;fill-rule:nonzero;stroke:none"
         id="path428" /><path
         d="m 11895,3655 c 4.8,-218.9 21.9,-459.3 58.6,-716.9 68.6,-482.6 187.6,-897.7 311.4,-1234.8 -99.6,6.1 -215.1,19.6 -341.7,46.7 -121.9,26.1 -229.1,59.5 -320,93.3 -66.6,155.6 -133.3,311.1 -200,466.7 l 430.9,220 -470.9,86.7 c 58.2,312.4 116.4,624.8 174.6,937.3 119,33.6 238.1,67.3 357.1,101"
         style="fill:#ebeddd;fill-opacity:1;fill-rule:nonzero;stroke:none"
         id="path430" /><path
         d="m 11126.7,2028.3 c 41.1,514 55.1,623.7 60,623.4 4.3,-0.3 2.4,-90.2 -1.7,-270 -3.5,-155.9 -7.8,-285.1 -11.2,-375.7 -15.7,7.4 -31.4,14.9 -47.1,22.3"
         style="fill:#b7b7a0;fill-opacity:1;fill-rule:nonzero;stroke:none"
         id="path432" /><path
         d="m 10770.7,3187.8 c 189.7,-239.9 286.1,-358.6 289.3,-356.1 3.3,2.5 -88.8,128.8 -276,379 -4.5,-7.6 -8.9,-15.3 -13.3,-22.9"
         style="fill:#b7b7a0;fill-opacity:1;fill-rule:nonzero;stroke:none"
         id="path434" /><path
         d="m 13382.8,3554 c 242.4,-82.7 432.6,-160.1 567.9,-219 75,-32.7 192.5,-85.6 210,-180 6.6,-35.9 -5.6,-54.5 -15,-120 -10.8,-74.6 -5.9,-128 4,-234.6 18.2,-196.8 64.2,-399.5 81,-470.4 -120.2,-104.4 -287.6,-228.4 -505.4,-334.3 -149.4,-72.6 -288.9,-120.3 -408,-152.4 -86.6,91.1 -173.3,182.3 -260,273.4 l -73.3,562.5 398.8,874.8"
         style="fill:#d6d4b8;fill-opacity:1;fill-rule:nonzero;stroke:none"
         id="path436" /><path
         d="m 13025.7,3655 c -4.8,-218.9 -22,-459.3 -58.6,-716.9 -68.7,-482.6 -187.6,-897.7 -311.4,-1234.8 99.6,6.1 215,19.6 341.6,46.7 121.9,26.1 229.2,59.5 320,93.3 66.7,155.6 133.4,311.1 200,466.7 l -430.8,220 470.8,86.7 c -58.1,312.4 -116.3,624.8 -174.5,937.3 -119,33.6 -238.1,67.3 -357.1,101"
         style="fill:#ebeddd;fill-opacity:1;fill-rule:nonzero;stroke:none"
         id="path438" /><path
         d="m 13794,2028.3 c -41.2,514 -55.1,623.7 -60,623.4 -4.3,-0.3 -2.4,-90.2 1.7,-270 3.5,-155.9 7.8,-285.1 11.2,-375.7 15.7,7.4 31.4,14.9 47.1,22.3"
         style="fill:#b7b7a0;fill-opacity:1;fill-rule:nonzero;stroke:none"
         id="path440" /><path
         d="m 14150,3187.8 c -189.7,-239.9 -286.1,-358.6 -289.3,-356.1 -3.3,2.5 88.7,128.8 276,379 4.4,-7.6 8.9,-15.3 13.3,-22.9"
         style="fill:#b7b7a0;fill-opacity:1;fill-rule:nonzero;stroke:none"
         id="path442" /><path
         d="m 13026.7,3655 c -25.9,-30.7 -240.8,-277.2 -591.7,-265 -320.5,11.2 -510.4,229.7 -540,265 38.4,22.6 155.2,97.9 215,250 46,117 35.2,220.7 27.3,267.3 h 653.5 c -7.9,-28.8 -53.3,-205.6 54,-365.8 15.9,-23.6 33.1,-44 50.7,-61.6 49.5,-49.6 101.5,-76.6 131.2,-89.9"
         style="fill:#f4ab86;fill-opacity:1;fill-rule:nonzero;stroke:none"
         id="path444" /><path
         d="m 12895.5,3744.9 c -109.7,16.3 -291.5,58.3 -480.5,180.1 -128.2,82.7 -218.4,175.4 -277.6,247.2 93.8,-48.2 201.8,-77.4 312.6,-78.9 3,0 6,-0.1 9,-0.1 113.8,0 230.7,28.9 330.9,79.1 h 0.9 c -3.8,-13.8 -16.2,-61.8 -16.3,-125.8 0,-69.1 14.6,-156.8 70.3,-240 15.9,-23.6 33.1,-44 50.7,-61.6"
         style="fill:#d17859;fill-opacity:1;fill-rule:nonzero;stroke:none"
         id="path446" /><path
         d="m 13156.7,4956.7 c -4.2,-20.5 -8.4,-41.1 -12.6,-61.6 -10.1,-49.1 -22.6,-109.6 -37.4,-178.4 -40.2,-187.5 -60.3,-281.2 -70.3,-304.7 -81.2,-191.1 -342.2,-322 -586.4,-318.7 -246.8,3.4 -480,144.1 -572.3,326.3 -27.3,54 -43.6,114.1 -64.2,190.4 -31,114.8 -45.7,216.1 -52.9,295.1 -1.7,18.5 -3,35.7 -3.9,51.6 32.2,59.9 82.5,161.4 126.6,293.3 22.8,68.3 39.9,132.6 53.6,193 8,35.2 14.8,69.2 20.9,101.8 43,229.5 51.4,395.4 186.1,507.9 27.3,22.91 87.7,71.8 159.4,60.6 98.3,-15.3 147.4,-132.5 154.4,-150 35.2,93.7 104.5,157.1 179,160.8 69.7,3.4 122.1,-46.7 150,-74.1 114,-112.2 128.4,-270.5 133.3,-316.7 6.2,-58.1 17.2,-125.7 35.9,-204.9 8.2,-34.9 17.9,-72.1 29.5,-111.7 36.6,-126.7 91,-278.2 171.3,-460"
         style="fill:#f4ab86;fill-opacity:1;fill-rule:nonzero;stroke:none"
         id="path448" /><path
         d="m 13144.1,4895.1 c -26.9,43.5 -66.9,112.7 -106.1,201.9 -76.3,173.9 -112.9,340.3 -143,480.5 -41.2,191.8 -42.5,261.6 -110.1,360.1 -33.2,48.5 -87.5,127.6 -161,127.6 -2.1,0 -4.2,-0.07 -6.4,-0.2 -65.9,-4.1 -127.6,-71.5 -155,-167.5 -5.7,12.2 -68.2,142 -177.5,147.5 -1.3,0.07 -3.2,0.15 -5.8,0.15 -16.1,0 -56,-3.35 -101.7,-35.15 -137.8,-95.8 -147.9,-323.8 -168.5,-466.6 -22.5,-156.9 -81.8,-377.7 -248.4,-638.3 v 0 0 c -1.3,17.2 -2.6,34.4 -3.9,51.6 v 0 c 32.2,59.9 82.5,161.4 126.6,293.3 22.8,68.3 39.9,132.6 53.6,193 8,35.2 14.8,69.2 20.9,101.8 43,229.5 51.4,395.4 186.1,507.9 24.6,20.61 75.9,62.25 138.2,62.25 6.9,0 14,-0.52 21.2,-1.65 98.3,-15.3 147.4,-132.5 154.4,-150 35.2,93.7 104.5,157.1 179,160.8 2.3,0.11 4.5,0.16 6.7,0.16 66.4,0 116.3,-47.75 143.3,-74.26 114,-112.2 128.4,-270.5 133.3,-316.7 6.2,-58.1 17.2,-125.7 35.9,-204.9 8.2,-34.9 17.9,-72.1 29.5,-111.7 36.6,-126.7 91,-278.2 171.3,-460 -4.2,-20.5 -8.4,-41.1 -12.6,-61.6 v 0"
         style="fill:#d57f5f;fill-opacity:1;fill-rule:nonzero;stroke:none"
         id="path450" /><path
         d="m 12431.2,5097.3 -83.3,-290.8 c -3.5,-12.4 -0.8,-25.8 7.2,-35.9 25.9,-32.6 65.9,-51.6 107.8,-50 48.5,1.8 80.7,30.5 97.1,50.2 8.5,10.1 11.2,23.9 7.4,36.5 -28.7,96.7 -57.4,193.3 -86.2,290 -0.6,12.7 -9.4,23 -20,25 -13.3,2.5 -28.4,-8.3 -30,-25"
         style="fill:#c96c4f;fill-opacity:1;fill-rule:nonzero;stroke:none"
         id="path452" /><path
         d="m 12301.3,5471.4 c -7.7,-13.5 -25,-20.1 -40.9,-14.8 -20.9,12.6 -92.6,52.3 -189.1,39.8 -58.8,-7.6 -104,-31.5 -134.4,-53.4 8,35.2 14.8,69.2 20.9,101.8 29.9,15 65.7,27.1 107.2,31.6 117.6,12.8 202.1,-44.1 222.5,-58.7 16.8,-9.7 22.4,-30.8 13.8,-46.3"
         style="fill:#5c2923;fill-opacity:1;fill-rule:nonzero;stroke:none"
         id="path454" /><path
         d="m 12985.4,5416.7 c -28.7,24.7 -81.1,60.2 -155.1,69.7 -96.5,12.5 -168.2,-27.2 -189.1,-39.8 -16,-5.4 -33.2,1.3 -40.9,14.8 -8.7,15.5 -3,36.6 13.8,46.3 20.4,14.6 104.9,71.5 222.5,58.7 47.3,-5.1 87.1,-20.1 119.3,-38 8.2,-34.9 17.9,-72.1 29.5,-111.7"
         style="fill:#5c2923;fill-opacity:1;fill-rule:nonzero;stroke:none"
         id="path456" /><path
         d="m 11895,5216.7 c 38.6,97 141.1,148.2 231.7,123.3 74.7,-20.5 130.8,-89.9 138.3,-173.3 -5.1,12 -43.9,99.6 -140,126.6 -81.8,23.1 -172.4,-7 -230,-76.6"
         style="fill:#391d1d;fill-opacity:1;fill-rule:nonzero;stroke:none"
         id="path458" /><path
         d="m 13026.7,5216.7 c -38.6,97 -141.2,148.2 -231.7,123.3 -74.7,-20.5 -130.8,-89.9 -138.3,-173.3 5,12 43.9,99.6 140,126.6 81.8,23.1 172.4,-7 230,-76.6"
         style="fill:#391d1d;fill-opacity:1;fill-rule:nonzero;stroke:none"
         id="path460" /><path
         d="m 12172.5,5134.5 c 0,-61.9 -34.1,-112 -76.2,-112 -42.2,0 -76.3,50.1 -76.3,112 0,61.8 34.1,112 76.3,112 42.1,0 76.2,-50.2 76.2,-112"
         style="fill:#271616;fill-opacity:1;fill-rule:nonzero;stroke:none"
         id="path462" /><path
         d="m 12137.3,5182.8 c 0,-8.6 -7,-15.5 -15.5,-15.5 -8.6,0 -15.5,6.9 -15.5,15.5 0,8.6 6.9,15.5 15.5,15.5 8.5,0 15.5,-6.9 15.5,-15.5"
         style="fill:#ffffff;fill-opacity:1;fill-rule:nonzero;stroke:none"
         id="path464" /><path
         d="m 12895.5,5134.5 c 0,-61.9 -34.2,-112 -76.3,-112 -42.1,0 -76.2,50.1 -76.2,112 0,61.8 34.1,112 76.2,112 42.1,0 76.3,-50.2 76.3,-112"
         style="fill:#271616;fill-opacity:1;fill-rule:nonzero;stroke:none"
         id="path466" /><path
         d="m 12860.3,5182.8 c 0,-8.6 -7,-15.5 -15.5,-15.5 -8.6,0 -15.6,6.9 -15.6,15.5 0,8.6 7,15.5 15.6,15.5 8.5,0 15.5,-6.9 15.5,-15.5"
         style="fill:#ffffff;fill-opacity:1;fill-rule:nonzero;stroke:none"
         id="path468" /><path
         d="m 12178.3,4641.7 c -4.2,-6.7 122.7,-158.2 296.7,-151.7 161.4,6 272,144.7 268.3,150 -3.4,4.9 -103.4,-106 -255,-115 -175.9,-10.5 -305.8,123.2 -310,116.7"
         style="fill:#c96c4f;fill-opacity:1;fill-rule:nonzero;stroke:none"
         id="path470" /></g></g></svg>
