<?xml version="1.0" encoding="UTF-8" standalone="no"?>
<!-- Created with Inkscape (http://www.inkscape.org/) -->

<svg
   version="1.1"
   id="svg2"
   xml:space="preserve"
   width="760.00006"
   height="759.9986"
   viewBox="0 0 760.00007 759.99861"
   xmlns="http://www.w3.org/2000/svg"
   xmlns:svg="http://www.w3.org/2000/svg"><defs
     id="defs6"><clipPath
       clipPathUnits="userSpaceOnUse"
       id="clipPath336"><path
         d="m 7587.42,11282.1 c 0,-1574 -1275.99,-2849.99 -2850,-2849.99 -1574.01,0 -2850,1275.99 -2850,2849.99 0,1574 1275.99,2850 2850,2850 1574.01,0 2850,-1276 2850,-2850"
         id="path334" /></clipPath></defs><path
     d="M 760.00005,380 C 760.00005,589.86666 589.868,759.99866 380,759.99866 170.13201,759.99866 5.6963255e-6,589.86666 5.6963255e-6,380 5.6963255e-6,170.13334 170.13201,5.2546241e-6 380,5.2546241e-6 589.868,5.2546241e-6 760.00005,170.13334 760.00005,380"
     style="fill:#b2d97e;fill-opacity:1;fill-rule:nonzero;stroke:none;stroke-width:0.133333"
     id="path328" /><g
     id="g330"
     transform="matrix(0.13333333,0,0,-0.13333333,-251.65598,1884.2799)"><g
       id="g332"
       clip-path="url(#clipPath336)"><path
         d="m 3923.39,10343.3 c -104.85,-8.7 -501.8,-54.2 -826.72,-386.63 C 2818.61,9672.19 2756.4,9344.47 2740,9230 c 129.4,-128.13 917.75,-883.17 2130,-830 1056.44,46.33 1724.38,675.3 1880,830 -20.47,123.82 -87.87,426.47 -341.69,697.01 -336.67,358.89 -763.1,407.29 -871.42,416.29 -537.83,0 -1075.66,0 -1613.5,0"
         style="fill:#f5f6e8;fill-opacity:1;fill-rule:nonzero;stroke:none"
         id="path338" /><path
         d="m 3289.62,8809.37 c -8.17,47.47 -20.13,113.25 -36.39,191.23 -73.33,351.79 -158.04,587.18 -151.56,589.4 4.1,1.41 42.09,-91.56 183.33,-482.5 9.73,293.57 15.15,359.21 18.33,359.17 5.57,-0.09 -0.14,-200.06 26.67,-481.67 8.49,-89.16 17.98,-162.88 25.09,-213.67 -21.82,12.67 -43.64,25.36 -65.47,38.04"
         style="fill:#cdcfb8;fill-opacity:1;fill-rule:nonzero;stroke:none"
         id="path340" /><path
         d="m 6212.14,8809.37 c 8.17,47.47 20.13,113.25 36.39,191.23 73.33,351.79 158.04,587.18 151.56,589.4 -4.1,1.41 -42.09,-91.56 -183.33,-482.5 -9.73,293.57 -15.14,359.21 -18.33,359.17 -5.57,-0.09 0.13,-200.05 -26.67,-481.67 -8.49,-89.16 -17.98,-162.88 -25.09,-213.67 21.82,12.68 43.65,25.36 65.47,38.04"
         style="fill:#cdcfb8;fill-opacity:1;fill-rule:nonzero;stroke:none"
         id="path342" /><path
         d="m 4125,10430 -201.61,-86.7 c 210.43,-342.3 591.96,-526.42 959.94,-466.63 416.33,67.64 624.75,416.53 653.56,466.63 -63.13,23.9 -126.26,47.8 -189.39,71.7 l -1222.5,15"
         style="fill:#c4c4ad;fill-opacity:1;fill-rule:nonzero;stroke:none"
         id="path344" /><path
         d="m 5203.93,10483.3 c 47.85,-22.7 95.71,-45.5 143.57,-68.3 -43.58,-47.5 -98.88,-100.6 -167.5,-152.5 -95.56,-72.3 -187.58,-120.4 -262.18,-152.5 -59.27,52 -118.55,103.9 -177.83,155.9 -57.66,-52 -115.31,-103.9 -172.97,-155.9 -56.88,21.4 -124,52.3 -194.52,97.5 -115.23,73.9 -195.44,157.9 -247.5,222.5 50.56,17.8 101.11,35.6 151.66,53.3 h 927.27"
         style="fill:#f5e9db;fill-opacity:1;fill-rule:nonzero;stroke:none"
         id="path346" /><path
         d="m 4567.02,10110 172.97,155.9 177.83,-155.9 c -27.15,-11.1 -59.78,-21.4 -97.35,-27.7 -110.74,-18.6 -202.96,8.2 -253.45,27.7"
         style="fill:#e74e21;fill-opacity:1;fill-rule:nonzero;stroke:none"
         id="path348" /><path
         d="m 3941.19,11901.3 c -42.82,66.3 -101.15,162.6 -161.19,283.7 -57.39,115.8 -104.87,211.8 -120,280 -69.57,313.9 394.84,724.9 800,915 194.43,91.2 509.53,239.1 760,90 112.93,-67.2 174.44,-172 207.57,-246.7 30.02,19.4 51.25,18.8 62.43,16.7 55.65,-10.2 101,-99.2 97.08,-223.3 26.74,39 62.85,57.6 87.92,48.3 23.73,-8.8 31.38,-40.2 35,-55 19.49,-80 -35.53,-155.8 -54.65,-180 78.27,-52.2 102,-125.6 79.45,-159.8 -18.57,-28.1 -67.08,-27.4 -79.45,-26.9 33.12,-39.9 92.36,-123.6 99.65,-238.3 5.39,-84.8 -20.1,-148 -61.41,-250.4 -25.65,-63.7 -67.78,-153.4 -136.65,-253.3 -538.58,0 -1077.16,0 -1615.75,0"
         style="fill:#64312b;fill-opacity:1;fill-rule:nonzero;stroke:none"
         id="path350" /><path
         d="m 4745,12680 c 56.95,22.2 133.1,59.2 211.25,121.3 56.97,45.2 99.87,91.8 131.17,131.2 -24.64,-45.1 -71.92,-117.3 -154.92,-180 -56.59,-42.7 -111.52,-67.3 -152.3,-81.6 -11.74,3 -23.47,6.1 -35.2,9.1"
         style="fill:#211514;fill-opacity:1;fill-rule:nonzero;stroke:none"
         id="path352" /><path
         d="m 5203.93,10976.1 v -492.8 c -39.06,-28.4 -95.61,-66.9 -167.27,-106.6 -125.76,-69.7 -188.64,-104.5 -266.66,-110 -110.71,-7.8 -199.39,39.2 -317.47,101.7 -77.31,40.9 -136.4,83.6 -175.87,114.9 0,164.3 0,328.6 0,492.8 h 927.27"
         style="fill:#f4ab86;fill-opacity:1;fill-rule:nonzero;stroke:none"
         id="path354" /><path
         d="m 5203.93,10483.3 c -103.61,2.3 -275.11,19.5 -463.93,106.7 -236.76,109.3 -379.64,272.7 -449.63,367.2 99.26,-97.8 256.8,-212.7 453.1,-212.7 7.12,0 14.3,0.2 21.53,0.5 202.56,8.6 351.36,137.1 438.93,231.1 v -492.8 0"
         style="fill:#d17859;fill-opacity:1;fill-rule:nonzero;stroke:none"
         id="path356" /><path
         d="m 5610,12295 c -7.6,-86.8 -20.3,-200.1 -42.5,-332.9 -10.3,-61.7 -22.6,-127.6 -37.5,-197.1 -77.3,-360.2 -119.6,-546.5 -270,-725 -69.4,-82.4 -239.4,-284.1 -495,-295 -322.6,-13.8 -545.3,286.5 -585,340 -122.4,165 -159.9,368.3 -235,775 -5.7,31 -11,60.9 -15.9,89.8 -1.1,6.4 -2.1,12.7 -3.2,18.9 -2.8,17 -5.5,33.6 -8,49.7 -13.8,88.1 -23.6,163.4 -30.5,221.7 -2.1,55.5 -0.8,222.1 117.6,349.9 27.8,30 57.3,52.7 85,70 83,-28.1 225.2,-63.7 400,-45 105.2,11.2 191.7,38.9 255,65 35.7,-10.7 211.8,-59.4 370,40 54.5,34.3 91.3,76.3 115,110 52.6,-39.8 112,-92.2 170,-160 117.9,-137.7 178.2,-278.2 210,-375"
         style="fill:#f4ab86;fill-opacity:1;fill-rule:nonzero;stroke:none"
         id="path358" /><path
         d="m 5556.94,11901.3 c 22.27,12.6 83.23,43.4 143.06,22 91.67,-32.7 114.64,-164 110,-233.3 -9.86,-147.3 -162.56,-282.8 -382.43,-340.3 43.13,183.9 86.25,367.7 129.37,551.6"
         style="fill:#f4ab86;fill-opacity:1;fill-rule:nonzero;stroke:none"
         id="path360" /><path
         d="m 5541.49,11498.6 c 6.78,41.4 49.41,292.3 125.88,295.6 0.52,0 1.04,0.1 1.56,0.1 9.78,0 21.5,-4.1 35.11,-16.6 6.92,-10 16.35,-26.6 20.19,-48.5 6.44,-37 -6.91,-66.4 -14.78,-83.8 -38.44,-84.7 -151.83,-139.2 -167.96,-146.8"
         style="fill:#d88563;fill-opacity:1;fill-rule:nonzero;stroke:none"
         id="path362" /><path
         d="m 5661.83,11806.8 c -50.76,2.7 -93.13,-112 -100.02,-131.4 -32.59,-91.7 -25.78,-176.2 -20.32,-176.8 4.92,-0.5 9.54,67 47.22,167.9 35.44,95 62,117.5 83.64,118.4 15.68,0.7 30.18,-9.9 31.69,-7.2 1.97,3.6 -19.62,27.9 -42.21,29.1"
         style="fill:#c1634a;fill-opacity:1;fill-rule:nonzero;stroke:none"
         id="path364" /><path
         d="m 5647.5,11664 c 22.31,-46.8 -9.6,-103.1 -13.73,-102.2 -4.1,0.9 21.26,55.6 -5.82,92.9 -15.32,21.1 -43.57,31.2 -40.66,47.1 0.13,0.7 1.27,6.5 5.71,8.6 12.29,6 41.72,-19.7 54.5,-46.4"
         style="fill:#c1634a;fill-opacity:1;fill-rule:nonzero;stroke:none"
         id="path366" /><path
         d="m 3941.19,11901.3 c -22.26,12.6 -83.23,43.4 -143.06,22 -91.67,-32.7 -114.63,-164 -110,-233.3 9.87,-147.3 162.56,-282.8 382.43,-340.3 -43.12,183.9 -86.24,367.7 -129.37,551.6"
         style="fill:#f4ab86;fill-opacity:1;fill-rule:nonzero;stroke:none"
         id="path368" /><path
         d="m 3968.99,11498.6 c -16.14,7.6 -129.52,62.1 -167.96,146.8 -7.87,17.4 -21.22,46.8 -14.78,83.8 3.84,21.9 13.26,38.5 20.19,48.5 13.61,12.5 25.32,16.6 35.11,16.6 0.52,0 1.04,-0.1 1.56,-0.1 76.47,-3.3 119.1,-254.2 125.88,-295.6"
         style="fill:#d88563;fill-opacity:1;fill-rule:nonzero;stroke:none"
         id="path370" /><path
         d="m 3848.65,11806.8 c 50.75,2.7 93.13,-112 100.02,-131.4 32.59,-91.7 25.78,-176.2 20.32,-176.8 -4.92,-0.5 -9.54,67 -47.22,167.9 -35.44,95 -62,117.5 -83.64,118.4 -15.68,0.7 -30.19,-9.9 -31.69,-7.2 -1.97,3.6 19.62,27.9 42.21,29.1"
         style="fill:#c1634a;fill-opacity:1;fill-rule:nonzero;stroke:none"
         id="path372" /><path
         d="m 3862.98,11664 c -22.31,-46.8 9.6,-103.1 13.72,-102.2 4.11,0.9 -21.26,55.6 5.82,92.9 15.32,21.1 43.57,31.2 40.66,47.1 -0.12,0.7 -1.26,6.5 -5.7,8.6 -12.29,6 -41.72,-19.7 -54.5,-46.4"
         style="fill:#c1634a;fill-opacity:1;fill-rule:nonzero;stroke:none"
         id="path374" /><path
         d="m 4716.67,11786.7 -83.32,-290.8 c -3.55,-12.4 -0.81,-25.8 7.21,-35.9 25.91,-32.6 65.86,-51.6 107.77,-50 48.52,1.8 80.65,30.5 97.08,50.2 8.49,10.1 11.23,23.9 7.45,36.5 -28.73,96.7 -57.46,193.3 -86.19,290 -0.68,12.7 -9.41,23 -20,25 -13.36,2.5 -28.43,-8.3 -30,-25"
         style="fill:#c96c4f;fill-opacity:1;fill-rule:nonzero;stroke:none"
         id="path376" /><path
         d="m 4862.5,11302.5 c 74.23,21.3 131.85,56 172.5,85.8 13.33,10.1 30.48,9.9 40,1.7 12.21,-10.6 12.81,-35.3 -5,-50 -42.88,-34.3 -108.84,-76.7 -196.63,-96.2 -200.74,-44.7 -377.94,60.6 -375.04,71.2 2.76,10.1 168.24,-68.7 364.17,-12.5"
         style="fill:#c96c4f;fill-opacity:1;fill-rule:nonzero;stroke:none"
         id="path378" /><path
         d="m 4182.5,12212.5 c -15.03,-11 -35.95,-8.5 -47.5,5 -10.71,12.5 -10.91,31.7 0,45 13.75,17.2 87.52,105.9 217.5,120 117.57,12.7 202.12,-44.2 222.5,-58.7 16.8,-9.7 22.44,-30.9 13.75,-46.3 -7.64,-13.6 -24.91,-20.2 -40.9,-14.8 -20.82,12.5 -92.54,52.2 -189.1,39.8 -99.6,-12.8 -159.93,-72.7 -176.25,-90"
         style="fill:#5c2923;fill-opacity:1;fill-rule:nonzero;stroke:none"
         id="path380" /><path
         d="m 5314.08,12212.5 c 15.03,-11 35.94,-8.5 47.5,5 10.71,12.5 10.91,31.7 0,45 -13.75,17.2 -87.53,105.9 -217.5,120 -117.58,12.7 -202.13,-44.2 -222.5,-58.7 -16.8,-9.7 -22.44,-30.9 -13.75,-46.3 7.63,-13.6 24.9,-20.2 40.9,-14.8 20.82,12.5 92.53,52.2 189.1,39.8 99.6,-12.8 159.93,-72.7 176.25,-90"
         style="fill:#5c2923;fill-opacity:1;fill-rule:nonzero;stroke:none"
         id="path382" /><path
         d="m 4400,12122.5 c 97.81,1.9 172.84,-90.8 166.67,-100.8 -5.18,-8.4 -64.63,45.7 -156.67,45 -107.12,-0.9 -175.08,-75.4 -181.67,-66.7 -7.41,9.8 66.26,120.5 171.67,122.5"
         style="fill:#391d1d;fill-opacity:1;fill-rule:nonzero;stroke:none"
         id="path384" /><path
         d="m 5084.84,12122.5 c -97.8,1.9 -172.83,-90.8 -166.67,-100.8 5.17,-8.4 64.63,45.7 156.67,45 107.12,-0.9 175.08,-75.4 181.67,-66.7 7.41,9.8 -66.26,120.5 -171.67,122.5"
         style="fill:#391d1d;fill-opacity:1;fill-rule:nonzero;stroke:none"
         id="path386" /><path
         d="m 4503.33,11877.5 c 0,-50.2 -36.93,-90.8 -82.5,-90.8 -45.56,0 -82.5,40.6 -82.5,90.8 0,50.2 36.94,90.8 82.5,90.8 45.57,0 82.5,-40.6 82.5,-90.8"
         style="fill:#271616;fill-opacity:1;fill-rule:nonzero;stroke:none"
         id="path388" /><path
         d="m 4454.58,11918.1 c 0,-9.3 -7.55,-16.8 -16.87,-16.8 -9.32,0 -16.88,7.5 -16.88,16.8 0,9.3 7.56,16.9 16.88,16.9 9.32,0 16.87,-7.6 16.87,-16.9"
         style="fill:#ffffff;fill-opacity:1;fill-rule:nonzero;stroke:none"
         id="path390" /><path
         d="m 5145,11877.5 c 0,-50.2 -36.94,-90.8 -82.5,-90.8 -45.56,0 -82.5,40.6 -82.5,90.8 0,50.2 36.94,90.8 82.5,90.8 45.56,0 82.5,-40.6 82.5,-90.8"
         style="fill:#271616;fill-opacity:1;fill-rule:nonzero;stroke:none"
         id="path392" /><path
         d="m 5062.5,11918.1 c 0,-9.3 -7.55,-16.8 -16.87,-16.8 -9.33,0 -16.88,7.5 -16.88,16.8 0,9.3 7.55,16.9 16.88,16.9 9.32,0 16.87,-7.6 16.87,-16.9"
         style="fill:#ffffff;fill-opacity:1;fill-rule:nonzero;stroke:none"
         id="path394" /><path
         d="m 4382.5,12175 c -144.74,0 -262.5,-117.8 -262.5,-262.5 0,-144.7 117.76,-262.5 262.5,-262.5 144.74,0 262.5,117.8 262.5,262.5 0,144.7 -117.76,262.5 -262.5,262.5 z m 0,-565 c -166.8,0 -302.5,135.7 -302.5,302.5 0,166.8 135.7,302.5 302.5,302.5 166.8,0 302.5,-135.7 302.5,-302.5 0,-166.8 -135.7,-302.5 -302.5,-302.5"
         style="fill:#2c1617;fill-opacity:1;fill-rule:nonzero;stroke:none"
         id="path396" /><path
         d="m 5109.34,12175 c -144.74,0 -262.5,-117.8 -262.5,-262.5 0,-144.7 117.76,-262.5 262.5,-262.5 144.74,0 262.5,117.8 262.5,262.5 0,144.7 -117.76,262.5 -262.5,262.5 z m 0,-565 c -166.8,0 -302.5,135.7 -302.5,302.5 0,166.8 135.7,302.5 302.5,302.5 166.8,0 302.5,-135.7 302.5,-302.5 0,-166.8 -135.7,-302.5 -302.5,-302.5"
         style="fill:#2c1617;fill-opacity:1;fill-rule:nonzero;stroke:none"
         id="path398" /><path
         d="M 4826.84,11892.5 H 4665 v 40 h 161.84 v -40"
         style="fill:#2c1617;fill-opacity:1;fill-rule:nonzero;stroke:none"
         id="path400" /><path
         d="m 4085.31,11873.1 c -49.39,10.1 -98.79,20.3 -148.18,30.4 -2.37,15 -4.75,29.9 -7.13,44.8 54.89,-12.1 109.79,-24.2 164.68,-36.4 l -9.37,-38.8"
         style="fill:#2c1617;fill-opacity:1;fill-rule:nonzero;stroke:none"
         id="path402" /><path
         d="m 5392.5,11862.5 c 4.89,16.5 9.77,33 14.66,49.4 53.45,11.3 106.89,22.6 160.34,33.9 -2.24,-14.1 -4.47,-28.3 -6.7,-42.4 -56.1,-13.6 -112.2,-27.3 -168.3,-40.9"
         style="fill:#2c1617;fill-opacity:1;fill-rule:nonzero;stroke:none"
         id="path404" /><path
         d="m 5567.5,11962.1 v 332.9 c -50.5,90.3 -113.2,189.3 -190.8,291.7 -51.7,68.1 -103.4,129.1 -153.4,183.3 -16.9,-24.5 -99.2,-138.2 -253.3,-166.7 -24.19,-4.5 -47.29,-6.3 -68.96,-6.3 -73.93,0 -131.16,21.4 -157.84,33 -70.74,-33.5 -199.56,-83.5 -360.64,-83.5 -32.92,0 -67.17,2.1 -102.56,6.8 -69.9,9.4 -130.3,27.3 -180,46.7 -29,-27.1 -57.6,-59 -83.3,-96.7 -117.4,-171.4 -114.3,-367.9 -98.8,-484.9 -13.8,88.1 -23.6,163.4 -30.5,221.7 -0.23,6.1 -0.42,13.5 -0.42,22 0.01,69.5 12.57,214.1 118.02,327.9 27.8,30 57.3,52.7 85,70 66.93,-22.7 172.38,-50.2 302.37,-50.2 31.2,0 63.8,1.6 97.63,5.2 105.2,11.2 191.7,38.9 255,65 18.53,-5.6 74.91,-21.3 146.97,-21.3 66.75,0 146.95,13.5 223.03,61.3 54.5,34.3 91.3,76.3 115,110 52.6,-39.8 112,-92.2 170,-160 117.9,-137.7 178.2,-278.2 210,-375 -7.6,-86.8 -20.3,-200.1 -42.5,-332.9"
         style="fill:#d57f5f;fill-opacity:1;fill-rule:nonzero;stroke:none"
         id="path406" /></g></g></svg>
