<?xml version="1.0" encoding="UTF-8" standalone="no"?>
<!-- Created with Inkscape (http://www.inkscape.org/) -->

<svg
   version="1.1"
   id="svg2"
   xml:space="preserve"
   width="759.99988"
   height="759.99866"
   viewBox="0 0 759.99989 759.99867"
   xmlns="http://www.w3.org/2000/svg"
   xmlns:svg="http://www.w3.org/2000/svg"><defs
     id="defs6"><clipPath
       clipPathUnits="userSpaceOnUse"
       id="clipPath266"><path
         d="m 15346.7,11282.1 c 0,-1574 -1276,-2849.99 -2850,-2849.99 -1574,0 -2850,1275.99 -2850,2849.99 0,1574 1276,2850 2850,2850 1574,0 2850,-1276 2850,-2850"
         id="path264" /></clipPath></defs><path
     d="m 759.99986,380 c 0,209.86666 -170.1333,379.99866 -379.9999,379.99866 C 170.13326,759.99866 -4.0034779e-5,589.86666 -4.0034779e-5,380 -4.0034779e-5,170.13334 170.13326,1.088261e-5 379.99996,1.088261e-5 589.86656,1.088261e-5 759.99986,170.13334 759.99986,380"
     style="fill:#f0d4c2;fill-opacity:1;fill-rule:nonzero;stroke:none;stroke-width:0.133333"
     id="path258" /><g
     id="g260"
     transform="matrix(0.13333333,0,0,-0.13333333,-1287.56,1884.28)"><g
       id="g262"
       clip-path="url(#clipPath266)"><path
         d="m 13500,10605 1096,-651.04 c 48,-28.5 85.1,-72.13 105.5,-124.04 L 14800,9580 c -95,-127.81 -863.5,-1125.43 -2220,-1170 -1471.5,-48.34 -2333.7,1067.63 -2410,1170 49.3,101.25 98.5,202.51 147.8,303.77 21,43.25 54,79.55 95.1,104.61 l 1067.1,651.62 2020,-35"
         style="fill:#4a2a2d;fill-opacity:1;fill-rule:nonzero;stroke:none"
         id="path268" /><path
         d="m 11950.7,10882 -470.7,-242 c 3.8,-93.6 26,-325 190,-550 122.9,-168.61 270.3,-257.94 352.7,-300 -36.5,130 -72.9,260 -109.4,390 h 1185.3 l -105.2,-390 c 102,68.94 297,222.4 416.6,490 54.8,122.7 79.1,236.3 90,325 -139.8,83.6 -279.7,167.1 -419.5,250.7 l -1129.8,26.3"
         style="fill:#9f7573;fill-opacity:1;fill-rule:nonzero;stroke:none"
         id="path270" /><path
         d="m 11913.3,10180 h 1185.3 l -105.2,-390 -126.7,-36.67 c 35,-244.42 63.1,-507.21 80,-786.66 10.8,-179.31 16.2,-351.99 17.2,-517.41 -109.2,-32.83 -261,-66.1 -443.9,-69.26 -207,-3.58 -377.3,32.73 -494.4,67.37 27,437.55 54.1,875.09 81.1,1312.63 l -84,30 -109.4,390"
         style="fill:#ffffff;fill-opacity:1;fill-rule:nonzero;stroke:none"
         id="path272" /><path
         d="m 14632.1,9927.5 c -77.9,-110.2 -160.5,-242.58 -237.7,-397.5 -100.2,-201.19 -165.6,-388.56 -209.1,-546.61 -9.2,-6.68 -18.4,-13.36 -27.6,-20.03 43.7,187.9 117.4,418.24 245.8,663.59 64.2,122.7 132.3,230.31 198.5,323.32 10,-7.59 20.1,-15.18 30.1,-22.77"
         style="fill:#171312;fill-opacity:1;fill-rule:nonzero;stroke:none"
         id="path274" /><path
         d="m 10338.1,9927.5 c 77.9,-110.2 160.5,-242.58 237.7,-397.5 100.2,-201.19 165.6,-388.56 209.1,-546.61 9.2,-6.68 18.4,-13.36 27.6,-20.03 -43.5,187.27 -117,417.81 -245.8,663.59 -66.1,126.02 -136.2,236.02 -204.2,330.55 -8.1,-10 -16.3,-20 -24.4,-30"
         style="fill:#171312;fill-opacity:1;fill-rule:nonzero;stroke:none"
         id="path276" /><path
         d="m 13146.7,10460 c -16.1,-93.3 -32.1,-186.7 -48.1,-280 -87.2,-39.3 -192.8,-76.5 -315.3,-100 -385.6,-74 -708.2,32.2 -870,100 -15.5,92.2 -31.1,184.4 -46.6,276.7 42,144.8 80.4,326.3 93.5,537.1 6.7,106.9 5.9,206.2 0.6,296.3 -1.1,20.4 -2.5,40.4 -4.1,59.9 264.7,1.6 529.4,3.2 794.1,4.9 97.5,0.6 195,1.2 292.5,1.8 0.2,-8.8 0.4,-17.7 0.7,-26.6 0.2,-7.9 0.5,-15.8 0.8,-23.8 4,-122.8 12.9,-253.4 28.6,-390.9 4.7,-41.8 10,-84.3 16,-127.4 9.4,-66.6 19.8,-131.2 31.1,-193.8 8.3,-45.8 17,-90.6 26.2,-134.2"
         style="fill:#eb8555;fill-opacity:1;fill-rule:nonzero;stroke:none"
         id="path278" /><path
         d="m 13080.5,10855.7 c -44.7,-21.8 -136.8,-33.1 -280.6,-33.1 -0.6,-0.1 -461.4,-23.8 -839.1,467.5 -26.2,34.1 -52.1,71.4 -52.1,71.4 -17.1,24.7 -32.2,47.7 -45.4,68.5 295.8,-25 591.7,-50.1 887.5,-75.1 97.7,-8.3 195.5,-16.6 293.2,-24.8 0.2,-7.9 0.5,-15.9 0.8,-23.8 5.5,-153.7 17.7,-304 35.7,-450.6"
         style="fill:#b85e47;fill-opacity:1;fill-rule:nonzero;stroke:none"
         id="path280" /><path
         d="m 11645,12265 -171.9,306 c -31,55.2 -30.7,122.7 0.7,177.7 l 80.8,141.3 c -19.1,-4.8 -45.4,-11.2 -77.1,-17.5 -65.4,-13.1 -71.8,-10 -75,-7.5 -27.2,21.4 19.3,129.5 50,185 43.4,78.6 150.3,224.6 432.1,330 -30.3,6.7 -75,16 -129.6,25 -152.6,25.1 -193.7,16.9 -200,35 -15.8,45.5 209,200.1 470,262.5 189.6,45.4 355.8,31.9 467.5,12.5 -17.2,22.1 -41.2,57.3 -60,105 -16.7,42.5 -25.7,65.2 -17.5,82.5 27,57 222.5,15.8 237.5,12.5 96.8,-21.1 274.8,-82 464.6,-295 22.1,106.8 40.8,159.8 56,158.8 19.5,-1.2 33.4,-90.8 41.7,-268.8 204.7,-41.6 254.7,-70.2 253.7,-89.9 -0.4,-9 -18.1,-19.5 -53.5,-40.1 -39,-22.7 -73.7,-38.9 -100.1,-50 175.7,-92.2 259.1,-150.6 250.1,-175 -5.8,-15.7 -49.9,-17.4 -132.5,-5 42.6,-39.2 111.4,-114.9 132.5,-225 4.8,-25.3 18.3,-110.5 -70.4,-328.4 -35.9,-88.2 -93.3,-209.8 -184.5,-345.3 L 11645,12265"
         style="fill:#4a2a2d;fill-opacity:1;fill-rule:nonzero;stroke:none"
         id="path282" /><path
         d="m 13310.1,12251.3 c 22.4,14.9 83.9,51.5 148.1,33.5 98.3,-27.6 131.9,-163.4 132.1,-236.3 0.4,-154.8 -149.6,-307.8 -375.5,-383.9 31.7,195.5 63.5,391.1 95.3,586.7"
         style="fill:#eb8555;fill-opacity:1;fill-rule:nonzero;stroke:none"
         id="path284" /><path
         d="m 13323.2,11828.7 c 4.1,43.8 30.4,309.5 110.2,318.6 1.4,0.1 2.8,0.2 4.3,0.2 9.7,0 21.4,-3.8 35.3,-14.9 8,-10 19.1,-26.6 24.7,-49.3 9.4,-38.2 -2.4,-70 -9.4,-88.7 -34.1,-91.5 -148.8,-156.8 -165.1,-165.9"
         style="fill:#cd6851;fill-opacity:1;fill-rule:nonzero;stroke:none"
         id="path286" /><path
         d="m 13426.7,12160 c -53.3,-0.8 -89.3,-123.9 -95.1,-144.7 -27.5,-98.5 -14.2,-186.4 -8.4,-186.6 5.2,-0.2 5.1,70.7 37.2,179.2 30.2,102 56.3,127.5 78.9,130 16.4,1.8 32.3,-8.2 33.7,-5.3 1.8,3.9 -22.5,27.8 -46.3,27.4"
         style="fill:#b6534d;fill-opacity:1;fill-rule:nonzero;stroke:none"
         id="path288" /><path
         d="m 13422.1,12009.5 c 26.8,-47.4 -2.5,-108.6 -6.9,-107.9 -4.4,0.6 18.2,59.7 -12.9,96.7 -17.5,21 -47.9,29.6 -46,46.4 0.1,0.7 0.9,6.8 5.4,9.4 12.4,7.1 45.1,-17.5 60.4,-44.6"
         style="fill:#b6534d;fill-opacity:1;fill-rule:nonzero;stroke:none"
         id="path290" /><path
         d="m 11706.6,12250.1 c -22.1,15.2 -83.1,52.8 -147.6,35.9 -98.7,-26 -134.5,-161.3 -135.8,-234.1 -2.9,-154.9 144.6,-310.3 369.3,-390 -28.7,196.1 -57.3,392.1 -85.9,588.2"
         style="fill:#eb8555;fill-opacity:1;fill-rule:nonzero;stroke:none"
         id="path292" /><path
         d="m 11699.6,11826.7 c -16.2,9.3 -129.8,76.4 -162.4,168.5 -6.7,18.9 -18,50.8 -8,88.9 6,22.6 17.3,39 25.5,48.9 13.8,10.6 25.3,14.3 35,14.3 1.6,0 3.2,-0.1 4.8,-0.3 79.6,-10.4 101.7,-276.4 105.1,-320.3"
         style="fill:#cd6851;fill-opacity:1;fill-rule:nonzero;stroke:none"
         id="path294" /><path
         d="m 11601.4,12159.6 c 53.3,-1.7 87.3,-125.4 92.8,-146.3 25.9,-98.8 11.2,-186.6 5.4,-186.6 -5.2,-0.1 -4,70.8 -34.3,179.7 -28.5,102.5 -54.3,128.4 -76.8,131.3 -16.4,2.1 -32.5,-7.7 -33.8,-4.7 -1.8,3.9 23,27.4 46.7,26.6"
         style="fill:#b6534d;fill-opacity:1;fill-rule:nonzero;stroke:none"
         id="path296" /><path
         d="m 11603.6,12009 c -27.5,-46.9 0.8,-108.5 5.2,-108 4.4,0.6 -17.2,60 14.4,96.6 17.9,20.6 48.4,28.8 46.7,45.6 0,0.7 -0.7,6.8 -5.2,9.5 -12.3,7.3 -45.3,-16.8 -61.1,-43.7"
         style="fill:#b6534d;fill-opacity:1;fill-rule:nonzero;stroke:none"
         id="path298" /><path
         d="m 13357.5,12560 c -15.8,-101.5 -31.7,-203.1 -47.5,-304.6 -41.7,-267.3 -83.3,-534.5 -125,-801.8 -6.2,-40.3 -27.4,-76.7 -59.4,-102 -95.5,-75.4 -278.3,-192.1 -532.3,-214.9 -346.7,-31.1 -605.4,132.7 -714.8,217.1 -31.5,24.4 -52.9,59.4 -60.1,98.5 -27.3,148.5 -53.5,300.1 -78.3,454.9 -19.3,120.8 -37.2,240.1 -53.8,357.8 l -0.1,0.7 c -14.8,104.4 -28.5,207.5 -41.2,309.3 29.6,74.3 105.1,233.2 275,355 95.7,68.6 189.1,102.4 255,120 -24,-29.1 -48.1,-58.1 -72.1,-87.2 -63.5,-76.8 -126.9,-153.6 -190.4,-230.3 82.8,6.5 199.6,25.9 327.5,82.5 120.2,53.2 213.1,123 282.1,187.9 v 0.1 c 53.1,50.1 92,97.4 118,132 -28.4,-61.2 -64.4,-129 -110.1,-200 -35.1,-54.5 -70.8,-102.7 -105,-145 67.9,4.6 194.7,22.2 330,100 86.4,49.7 149.3,108.4 192.6,157.7 18.9,21.4 34,41 45.8,57.3 49.8,-43.9 103.8,-98.3 156.6,-165 109.9,-138.9 171.8,-276.7 207.5,-380"
         style="fill:#eb8555;fill-opacity:1;fill-rule:nonzero;stroke:none"
         id="path300" /><path
         d="m 12304.5,12467 c 4.7,-2.4 9.1,-5.6 12.5,-9.7 10.8,-13.2 13.3,-32 5.5,-47.7 -1.5,-3 -3.3,-5.8 -5.4,-8.4 -13.5,-16.3 -37.7,-18.9 -55.7,-7.8 -39.5,24.4 -93.8,49.7 -160.5,56.8 -117.2,12.5 -209.6,-37.9 -215.9,-23.5 -5.1,11.5 48.1,55.2 110.5,77.9 125.9,45.6 251.9,-8 309,-37.6"
         style="fill:#381c1b;fill-opacity:1;fill-rule:nonzero;stroke:none"
         id="path302" /><path
         d="m 12697.2,12467 c -4.7,-2.4 -9.1,-5.6 -12.5,-9.7 -10.8,-13.2 -13.3,-32 -5.5,-47.7 1.5,-3 3.3,-5.8 5.4,-8.4 13.5,-16.3 37.7,-18.9 55.7,-7.8 39.5,24.4 93.8,49.7 160.5,56.8 117.2,12.5 209.6,-37.9 215.9,-23.5 5.1,11.5 -48,55.2 -110.5,77.9 -125.9,45.6 -251.9,-8 -309,-37.6"
         style="fill:#381c1b;fill-opacity:1;fill-rule:nonzero;stroke:none"
         id="path304" /><path
         d="m 12116.7,12380 c 86.6,29.1 179.5,-45.9 176.6,-53.3 -2.5,-6.7 -79.9,42.9 -168.3,16.6 -64,-19 -96.6,-66.6 -101.7,-61.6 -5.8,5.7 28.5,76.6 93.4,98.3"
         style="fill:#381c1b;fill-opacity:1;fill-rule:nonzero;stroke:none"
         id="path306" /><path
         d="m 12899.4,12380 c -86.7,29.1 -179.5,-45.9 -176.6,-53.3 2.5,-6.7 79.8,42.9 168.3,16.6 64,-19 96.6,-66.6 101.7,-61.6 5.8,5.7 -28.5,76.6 -93.4,98.3"
         style="fill:#381c1b;fill-opacity:1;fill-rule:nonzero;stroke:none"
         id="path308" /><path
         d="m 12256.7,12212.5 c 0,-58.4 -29.9,-105.8 -66.7,-105.8 -36.8,0 -66.7,47.4 -66.7,105.8 0,58.4 29.9,105.8 66.7,105.8 36.8,0 66.7,-47.4 66.7,-105.8"
         style="fill:#1e1414;fill-opacity:1;fill-rule:nonzero;stroke:none"
         id="path310" /><path
         d="m 12206.7,12249.2 c 0,-8.8 -7.1,-15.9 -15.9,-15.9 -8.7,0 -15.8,7.1 -15.8,15.9 0,8.7 7.1,15.8 15.8,15.8 8.8,0 15.9,-7.1 15.9,-15.8"
         style="fill:#ffffff;fill-opacity:1;fill-rule:nonzero;stroke:none"
         id="path312" /><path
         d="m 12876.7,12212.5 c 0,-58.4 -29.9,-105.8 -66.7,-105.8 -36.8,0 -66.7,47.4 -66.7,105.8 0,58.4 29.9,105.8 66.7,105.8 36.8,0 66.7,-47.4 66.7,-105.8"
         style="fill:#1e1414;fill-opacity:1;fill-rule:nonzero;stroke:none"
         id="path314" /><path
         d="m 12825.8,12249.2 c 0,-8.8 -7.1,-15.9 -15.8,-15.9 -8.7,0 -15.8,7.1 -15.8,15.9 0,8.7 7.1,15.8 15.8,15.8 8.7,0 15.8,-7.1 15.8,-15.8"
         style="fill:#ffffff;fill-opacity:1;fill-rule:nonzero;stroke:none"
         id="path316" /><path
         d="m 12475.5,12149.9 -114.5,-305.2 c -2.8,-7.5 -0.4,-15.9 5.9,-20.8 21.6,-16.5 68.5,-45.7 133.7,-45.6 64.4,0.2 110.7,28.7 132.5,45.3 6.5,5 8.8,13.8 5.6,21.5 -43.2,101.8 -86.3,203.6 -129.5,305.5 -6.4,15.1 -27.9,14.6 -33.7,-0.7"
         style="fill:#b6534d;fill-opacity:1;fill-rule:nonzero;stroke:none"
         id="path318" /><path
         d="m 12843.8,11858.8 c 10.8,16.7 33.5,19.9 47.5,8.7 12.8,-10.3 15.5,-30.5 4.5,-45 -39,-49.6 -105.3,-118 -205.8,-160 -202.4,-84.5 -404.7,-3.8 -403.7,5 0.9,9.1 221.3,-60 412.5,53.8 67.4,40.1 113.7,92.6 145,137.5"
         style="fill:#b6534d;fill-opacity:1;fill-rule:nonzero;stroke:none"
         id="path320" /><path
         d="m 11686.3,12265 v 0 l -0.1,0.7 c -14.8,104.4 -28.5,207.5 -41.2,309.3 29.6,74.3 105.1,233.2 275,355 95.7,68.6 189.1,102.4 255,120 -24,-29.1 -48.1,-58.1 -72.1,-87.2 v 0 c -44.6,-16.5 -95.6,-40.3 -147.9,-75.3 -154.7,-103.5 -229.8,-243.6 -262.5,-317.5 -2.1,-101.7 -4.2,-203.3 -6.2,-305"
         style="fill:#c96451;fill-opacity:1;fill-rule:nonzero;stroke:none"
         id="path322" /><path
         d="m 12425,12790 v 0 0 0 m 0,0 c 23.6,35.3 48.6,79.5 70,132.5 11.5,28.5 20.3,55.4 27.1,80.4 v 0.1 c 53.1,50.1 92,97.4 118,132 -28.4,-61.2 -64.4,-129 -110.1,-200 -35.1,-54.5 -70.8,-102.7 -105,-145"
         style="fill:#c96451;fill-opacity:1;fill-rule:nonzero;stroke:none"
         id="path324" /><path
         d="m 13310,12255.4 c -2.6,103.1 -5,206.4 -7.5,309.6 -45.4,107.6 -120,245.4 -244.1,378 -37.3,39.7 -74.7,74.4 -110.8,104.7 18.9,21.4 34,41 45.8,57.3 49.8,-43.9 103.8,-98.3 156.6,-165 109.9,-138.9 171.8,-276.7 207.5,-380 -15.8,-101.5 -31.7,-203.1 -47.5,-304.6 v 0"
         style="fill:#c96451;fill-opacity:1;fill-rule:nonzero;stroke:none"
         id="path326" /></g></g></svg>
