<?xml version="1.0" encoding="UTF-8" standalone="no"?>
<!-- Created with Inkscape (http://www.inkscape.org/) -->

<svg
   version="1.1"
   id="svg2"
   xml:space="preserve"
   width="760"
   height="759.99597"
   viewBox="0 0 760.00001 759.99599"
   xmlns="http://www.w3.org/2000/svg"
   xmlns:svg="http://www.w3.org/2000/svg"><defs
     id="defs6"><clipPath
       clipPathUnits="userSpaceOnUse"
       id="clipPath86"><path
         d="m 23096.4,4648.4 c 0,-1574 -1276,-2850 -2850,-2850 -1574,0 -2850,1276 -2850,2850 0,1573.98 1276,2849.97 2850,2849.97 1574,0 2850,-1275.99 2850,-2849.97"
         id="path84" /></clipPath><clipPath
       clipPathUnits="userSpaceOnUse"
       id="clipPath102"><path
         d="m 23096.4,4648.4 c 0,-1574 -1276,-2850 -2850,-2850 -1574,0 -2850,1276 -2850,2850 0,1573.98 1276,2849.97 2850,2849.97 1574,0 2850,-1275.99 2850,-2849.97"
         id="path100" /></clipPath><clipPath
       clipPathUnits="userSpaceOnUse"
       id="clipPath108"><path
         d="m 20236.3,3805.9 c -234.4,0 -416.1,85.5 -491.3,125.3 132.9,38.5 310.6,74.8 519,74.8 63.2,0 129.2,-3.4 197.7,-11 99.2,-11.1 189.4,-29.6 269.6,-51.3 -74.9,-44.6 -183,-96 -320.1,-121.6 -60.8,-11.4 -119.3,-16.2 -174.9,-16.2"
         id="path106" /></clipPath><clipPath
       clipPathUnits="userSpaceOnUse"
       id="clipPath118"><path
         d="m 23096.4,4648.4 c 0,-1574 -1276,-2850 -2850,-2850 -1574,0 -2850,1276 -2850,2850 0,1573.98 1276,2849.97 2850,2849.97 1574,0 2850,-1275.99 2850,-2849.97"
         id="path116" /></clipPath></defs><path
     d="m 759.99991,379.99597 c 0,209.8667 -170.1333,380 -380,380 -209.8666,0 -379.999996097543,-170.1333 -379.999996097543,-380 C -8.6097543e-5,170.13207 170.13331,6.635011e-5 379.99991,6.635011e-5 c 209.8667,0 380,170.13200364989 380,379.99590364989"
     style="fill:#f0d4c2;fill-opacity:1;fill-rule:nonzero;stroke:none;stroke-width:0.133333"
     id="path78" /><g
     id="g80"
     transform="matrix(0.13333333,0,0,-0.13333333,-2319.52,999.78267)"><g
       id="g82"
       clip-path="url(#clipPath86)"><path
         d="m 19624.6,3546.4 c -233.4,-129 -429.4,-208.6 -565.9,-257.6 -213.3,-76.6 -351.2,-103.6 -462,-242.1 -52.1,-65 -87.5,-141.4 -133.4,-240 -55.8,-120.2 -91.2,-225 -113.3,-300 194.4,-176.6 764.6,-647.4 1633.3,-733.4 1178,-116.5 2002.3,563.9 2153.4,693.4 -39.7,137.7 -83.6,249.9 -120,333.3 -42.6,97.3 -64.7,147.1 -106.7,200 -94.9,119.7 -218.7,166.5 -286.7,193.3 -191.7,75.9 -438.6,190.6 -766.6,353.1 -410.7,0 -821.4,0 -1232.1,0"
         style="fill:#4a2a2d;fill-opacity:1;fill-rule:nonzero;stroke:none"
         id="path88" /><path
         d="m 18946.7,2088.3 c -7.4,144.5 -26.5,310.7 -66.7,491.7 -23.3,105.2 -50.9,202 -80,290 43.7,-99.9 87.8,-219.3 123.3,-356.7 43.9,-169.5 63.4,-322.7 71,-449.7 -15.8,8.2 -31.7,16.5 -47.6,24.7"
         style="fill:#171312;fill-opacity:1;fill-rule:nonzero;stroke:none"
         id="path90" /><path
         d="m 21559.6,2088.3 c 7.5,144.5 26.6,310.7 66.8,491.7 23.3,105.2 50.8,202 80,290 -43.8,-99.9 -87.8,-219.3 -123.4,-356.7 -43.8,-169.5 -63.3,-322.7 -71,-449.7 15.9,8.2 31.8,16.5 47.6,24.7"
         style="fill:#171312;fill-opacity:1;fill-rule:nonzero;stroke:none"
         id="path92" /><path
         d="m 19861.1,4095 c -34.7,2.8 -101.1,2.1 -147.8,-41.7 -9.7,-9.1 -38.6,-39 -57.3,-166.1 -11.4,-78.4 -10.3,-134.1 -10.7,-167.1 -1.1,-69.4 -11.4,-169.6 -55.3,-295.1 60.2,-34.5 126.8,-65.9 200,-91.7 468.9,-165.1 918,4 1110.4,91.7 -61.8,142.5 -76.6,258.8 -78.8,338.4 -3.1,112.7 18.1,190.3 -31.6,253.3 -45.1,57.1 -123.5,70.5 -180,73.3 -249.6,1.7 -499.2,3.3 -748.9,5"
         style="fill:#6a3f43;fill-opacity:1;fill-rule:nonzero;stroke:none"
         id="path94" /></g></g><g
     id="g96"
     transform="matrix(0.13333333,0,0,-0.13333333,-2319.52,999.78267)"><g
       id="g98"
       clip-path="url(#clipPath102)"><g
         id="g104"
         clip-path="url(#clipPath108)"><path
           d="m 19745,3805.9 h 986.301 v 200.102 H 19745 Z"
           style="fill:#533133;fill-opacity:1;fill-rule:nonzero;stroke:none"
           id="path110" /></g></g></g><g
     id="g112"
     transform="matrix(0.13333333,0,0,-0.13333333,-2319.52,999.78267)"><g
       id="g114"
       clip-path="url(#clipPath118)"><path
         d="m 19745,3931.2 c 94.2,-49.6 354.7,-170.2 675,-107.5 132.3,26 237.2,75.8 311.3,120 -83.7,-39.1 -196,-80 -332.5,-100 -296,-43.1 -535.4,37.6 -653.8,87.5"
         style="fill:#4a2a2d;fill-opacity:1;fill-rule:nonzero;stroke:none"
         id="path120" /><path
         d="m 19750,4055 c -35.6,55 -71.1,110 -106.7,165 0,-45 0,-90 0,-135 -49.4,22.8 -98.9,45.6 -148.3,68.3 l 125,-335.2 -263.3,125.6 c -35.6,152.1 -71.1,304.2 -106.7,456.3 -2.2,-131.3 -4.4,-262.7 -6.7,-394 l -140,51.5 c -72.2,208.3 -152.8,532.9 -123.3,927.5 13.2,177.2 46,332.4 83.3,461.3 -29.1,28.3 -63.9,70.6 -83.3,128.7 -108.9,326.9 400.7,770.37 710,971.67 126.8,82.5 773.6,484.65 1070,248.33 50,-39.9 79.2,-89.27 96.7,-128.33 169,-34.93 289.5,-139.39 301.8,-256.75 2.7,-25.14 1.9,-65.86 -21.8,-116.59 48.3,-38.57 305.2,-250.67 287.5,-542.33 -2.3,-39.1 -9.9,-84.5 -27.5,-134.3 49.6,-190.2 96.9,-446.8 98.3,-751.7 1.5,-318.2 -47.4,-584.9 -98.3,-780 -60.6,-43.3 -121.1,-86.7 -181.7,-130 -6.1,148.3 -12.2,296.7 -18.3,445 l -86.7,-456.3 c -67.8,-30.2 -135.6,-60.5 -203.4,-90.7 14.9,84.5 29.9,169 44.9,253.5 -42.2,-12.2 -84.3,-24.3 -126.5,-36.5 11.7,53.3 23.3,106.7 35,160 -42.9,-57.5 -85.8,-115 -128.7,-172.5 -327.1,-0.8 -654.2,-1.7 -981.3,-2.5"
         style="fill:#4a2a2d;fill-opacity:1;fill-rule:nonzero;stroke:none"
         id="path122" /><path
         d="m 21039.7,5237.8 c 15.6,-163.9 22,-361.7 3.6,-584.5 -17.3,-209.9 -52.7,-394 -91.8,-546.8 -42.2,-12.2 -84.3,-24.3 -126.5,-36.5 l 35,160 -128.7,-172.5 -981.3,-2.5 -106.7,165 v -135 l -148.3,68.3 c -19.7,93.3 -36.8,199.6 -47,317.1 -10.1,117.2 -11.4,224.5 -8,319.6 18.3,50 36.7,100 55,150 l 1544.7,297.8"
         style="fill:#341e1e;fill-opacity:1;fill-rule:nonzero;stroke:none"
         id="path124" /><path
         d="m 19813.8,6220 c -83.7,-101.57 -182.5,-243.9 -262.4,-428.7 -136,-314.9 -151.2,-600.4 -146.4,-771.3 20.2,186.9 64.3,425.8 161.7,690 75.4,204.7 164.5,375.04 247.1,510"
         style="fill:#341e1e;fill-opacity:1;fill-rule:nonzero;stroke:none"
         id="path126" /><path
         d="m 20856.7,6666.67 c 21.3,-34.89 43.3,-76.02 63.3,-123.34 32.6,-77.36 50.2,-148.6 60,-206.66 -3,53.31 -11.5,118.99 -32.3,191.77 -13.9,48.69 -30.6,91.26 -47.3,127.32 -14.6,3.63 -29.2,7.27 -43.7,10.91"
         style="fill:#341e1e;fill-opacity:1;fill-rule:nonzero;stroke:none"
         id="path128" /><path
         d="m 19867.4,5624.6 c 94,94.2 187.9,188.4 281.8,282.8 77,77.5 154,155 231,232.6 -64.8,-85.31 -137.9,-174.9 -220.2,-266.7 -78.9,-87.9 -156.6,-167.2 -231.3,-238.4 -20.4,-3.5 -40.9,-6.9 -61.3,-10.3"
         style="fill:#341e1e;fill-opacity:1;fill-rule:nonzero;stroke:none"
         id="path130" /><path
         d="m 20605,4220 -2.5,-325 c -69.5,-30.4 -175.1,-66.4 -307.5,-75 -194.7,-12.7 -347.5,40.3 -427.6,75 0,105.1 0,210.2 0,315.3 l 737.6,9.7"
         style="fill:#eb8555;fill-opacity:1;fill-rule:nonzero;stroke:none"
         id="path132" /><path
         d="m 19867.4,4210.3 c 63.5,-61.3 162.4,-142.5 300.1,-207.8 176.3,-83.6 336.7,-103.2 435,-107.5 0.8,108.3 1.7,216.7 2.5,325 l -737.6,-9.7"
         style="fill:#b85e47;fill-opacity:1;fill-rule:nonzero;stroke:none"
         id="path134" /><path
         d="m 21035,5075 c -23.5,-170.4 -51.3,-312.7 -75,-420 -42.7,-193.5 -67.8,-255.1 -120,-310 -38.1,-40 -104.2,-68.9 -235,-125 -195.4,-83.9 -293,-125.8 -375,-125 -64.8,0.6 -146.6,32.1 -310,95 -169.8,65.4 -255.6,99.1 -295,150 -44.4,57.4 -41.5,100.5 -80,330 -15.5,93 -30.4,171.5 -41.8,229.2 -3,15 -5.7,28.7 -8.2,40.8 32.6,114.9 85.9,258.9 175.5,412 h 0.1 l 0.1,0.2 v 0.1 c 2.3,4 4.7,7.9 7.1,12 3.5,5.8 7,11.7 10.6,17.5 41.2,67.2 83.8,126.7 125.4,178.8 15.7,19.7 31.4,38.5 46.7,56.1 2.3,2.7 4.6,5.3 6.9,7.9 137.3,20.2 354.5,70.6 582.6,210.4 148.3,90.8 257.2,192.41 332.5,275 57.5,-92.6 119,-211.2 167.5,-355 63.6,-188.5 85.4,-362.4 89.1,-504.5 1.7,-66 -0.4,-125 -4.1,-175.5"
         style="fill:#eb8555;fill-opacity:1;fill-rule:nonzero;stroke:none"
         id="path136" /><path
         d="m 19495.4,4941.4 c 0.1,0.3 0.2,0.6 0.2,0.8 0,-0.2 -0.1,-0.5 -0.2,-0.8 m 0.4,1.3 c 0.1,0.4 0.2,0.8 0.3,1.1 -0.1,-0.3 -0.2,-0.7 -0.3,-1.1 m 0.4,1.4 c 0.1,0.4 0.2,0.7 0.3,1.1 -0.1,-0.4 -0.2,-0.7 -0.3,-1.1 m 0.4,1.4 c 0.1,0.3 0.2,0.7 0.3,1.1 -0.1,-0.4 -0.2,-0.8 -0.3,-1.1 m 0.4,1.3 c 0.1,0.4 0.2,0.8 0.3,1.1 -0.1,-0.3 -0.2,-0.7 -0.3,-1.1 m 0.4,1.4 c 0.1,0.4 0.2,0.8 0.3,1.2 -0.1,-0.4 -0.2,-0.8 -0.3,-1.2 m 0.3,1.4 c 0.2,0.4 0.3,0.8 0.4,1.2 -0.1,-0.4 -0.2,-0.8 -0.4,-1.2 m 0.4,1.3 c 0.1,0.4 0.3,0.9 0.4,1.3 -0.1,-0.4 -0.3,-0.9 -0.4,-1.3 m 0.4,1.4 c 1.9,6.3 3.8,12.8 5.8,19.3 -2,-6.5 -3.9,-13 -5.8,-19.3 m 5.8,19.4 c 0.3,0.9 0.5,1.8 0.8,2.7 -0.3,-0.9 -0.5,-1.8 -0.8,-2.7 m 0.9,2.9 c 0.1,0.4 0.2,0.8 0.3,1.2 -0.1,-0.4 -0.2,-0.8 -0.3,-1.2 m 0.4,1.5 c 0.2,0.3 0.3,0.7 0.4,1.1 -0.1,-0.4 -0.2,-0.8 -0.4,-1.1 m 0.5,1.4 c 0.1,0.4 0.2,0.8 0.3,1.2 -0.1,-0.4 -0.2,-0.8 -0.3,-1.2 m 0.4,1.3 c 0.1,0.4 0.2,0.9 0.4,1.3 -0.2,-0.4 -0.3,-0.9 -0.4,-1.3 m 0.5,1.5 c 0.1,0.4 0.2,0.8 0.3,1.2 -0.1,-0.4 -0.2,-0.8 -0.3,-1.2 m 0.4,1.4 c 0.4,1.3 0.8,2.5 1.2,3.8 -0.4,-1.3 -0.8,-2.5 -1.2,-3.8 m 2.2,7.2 v 0 0 m 0.5,1.5 v 0.1 -0.1 m 0.5,1.5 c 0,0.1 0,0.1 0,0.1 0,0 0,0 0,-0.1 m 160,360.1 v 0 c 0,0.1 0.1,0.2 0.1,0.3 v -0.1 l -0.1,-0.2 m 17.8,29.8 c 41.4,67.7 84.4,127.5 126.2,179.9 -0.2,-0.4 -0.5,-0.7 -0.8,-1.1 -41.6,-52.1 -84.2,-111.6 -125.4,-178.8"
         style="fill:#8e4442;fill-opacity:1;fill-rule:nonzero;stroke:none"
         id="path138" /><path
         d="m 19503.2,4899.2 v 0 c -3,15 -5.7,28.7 -8.2,40.8 0.1,0.5 0.3,0.9 0.4,1.4 0.1,0.3 0.2,0.6 0.2,0.8 0.1,0.2 0.1,0.4 0.2,0.5 0.1,0.4 0.2,0.8 0.3,1.1 0,0.1 0,0.2 0.1,0.3 0.1,0.4 0.2,0.7 0.3,1.1 0,0.1 0,0.2 0.1,0.3 0.1,0.3 0.2,0.7 0.3,1.1 0,0.1 0,0.1 0.1,0.2 0.1,0.4 0.2,0.8 0.3,1.1 0,0.1 0,0.2 0.1,0.3 0.1,0.4 0.2,0.8 0.3,1.2 0,0 0,0.1 0,0.2 0.2,0.4 0.3,0.8 0.4,1.2 v 0.1 c 0.1,0.4 0.3,0.9 0.4,1.3 0,0 0,0 0,0.1 1.9,6.3 3.8,12.8 5.8,19.3 0,0.1 0,0.1 0,0.1 0.3,0.9 0.5,1.8 0.8,2.7 0,0.1 0.1,0.1 0.1,0.2 0.1,0.4 0.2,0.8 0.3,1.2 0.1,0.1 0.1,0.2 0.1,0.3 0.2,0.3 0.3,0.7 0.4,1.1 0,0.1 0.1,0.2 0.1,0.3 0.1,0.4 0.2,0.8 0.3,1.2 0.1,0 0.1,0.1 0.1,0.1 0.1,0.4 0.2,0.9 0.4,1.3 0,0.1 0,0.2 0.1,0.2 0.1,0.4 0.2,0.8 0.3,1.2 0,0.1 0.1,0.1 0.1,0.2 0.4,1.3 0.8,2.5 1.2,3.8 0.3,1.1 0.7,2.2 1,3.4 v 0 c 0.2,0.5 0.3,1 0.5,1.5 v 0.1 c 0.2,0.5 0.3,1 0.5,1.4 0,0.1 0,0.1 0,0.1 33.3,105 83.4,229.2 160,360 v 0 l 0.1,0.2 v 0.1 c 5.8,9.8 11.6,19.6 17.7,29.5 v 0 c 41.2,67.2 83.8,126.7 125.4,178.8 0.3,0.4 0.6,0.7 0.8,1.1 17.9,22.3 35.5,43.2 52.8,62.9 137.3,20.2 354.5,70.6 582.6,210.4 148.3,90.8 257.2,192.41 332.5,275 57.5,-92.6 119,-211.2 167.5,-355 63.6,-188.5 85.4,-362.4 89.1,-504.5 V 5160 c -15.8,155.9 -49.5,345.2 -119.1,552.5 -40.4,120.4 -86.4,227.2 -132.5,320 -124.7,-133.7 -358.7,-340.1 -700,-410 -62.5,-12.8 -122.3,-19.7 -178.5,-22.5 -54.2,-61.9 -110.4,-133.4 -165,-215.2 -117.7,-176 -192.4,-345.5 -240.8,-485.6"
         style="fill:#c96451;fill-opacity:1;fill-rule:nonzero;stroke:none"
         id="path140" /><path
         d="m 20215.5,5144 -114.4,-415.3 c -2.8,-10.2 -0.5,-21.7 5.9,-28.3 21.6,-22.5 68.5,-62.2 133.7,-62 64.3,0.1 110.6,39 132.4,61.5 6.6,6.8 8.8,18.9 5.6,29.3 -43.1,138.5 -86.3,277.1 -129.4,415.7 -6.4,20.6 -28,20 -33.8,-0.9"
         style="fill:#b6534d;fill-opacity:1;fill-rule:nonzero;stroke:none"
         id="path142" /><path
         d="m 20470,5456.6 c -15.9,-11 -34.4,-13.5 -44,-6 -12.5,9.7 -14.1,39.6 9,62.7 17.5,17.6 138.9,135.8 282.5,106.7 115.4,-23.4 188.9,-130 182.5,-138.3 -6.1,-7.9 -80,74.8 -187.5,82 -100.7,6.9 -186.8,-55.4 -242.5,-107.1"
         style="fill:#381c1b;fill-opacity:1;fill-rule:nonzero;stroke:none"
         id="path144" /><path
         d="m 20467.5,5285 c 43.1,88.4 128.2,140.6 210.8,131.7 64.5,-7 106.7,-48.9 121.1,-64.7 -2,-2.3 -4,-4.7 -6.1,-7 -21.1,14.6 -62.5,38.6 -118.3,41.7 -120.8,6.6 -199,-90.8 -207.5,-101.7"
         style="fill:#381c1b;fill-opacity:1;fill-rule:nonzero;stroke:none"
         id="path146" /><path
         d="m 20782.5,5356.2 c 24.7,20.8 49.4,41.5 74.2,62.3 -21.1,-24.5 -42.3,-49 -63.4,-73.5 -3.6,3.7 -7.2,7.5 -10.8,11.2"
         style="fill:#381c1b;fill-opacity:1;fill-rule:nonzero;stroke:none"
         id="path148" /><path
         d="m 20668.3,5206.7 c 0,-51.6 -29.5,-93.4 -65.8,-93.4 -36.4,0 -65.8,41.8 -65.8,93.4 0,51.5 29.4,93.3 65.8,93.3 36.3,0 65.8,-41.8 65.8,-93.3"
         style="fill:#1e1414;fill-opacity:1;fill-rule:nonzero;stroke:none"
         id="path150" /><path
         d="m 20633.4,5250.1 c 0,-6.8 -5.5,-12.3 -12.3,-12.3 -6.8,0 -12.3,5.5 -12.3,12.3 0,6.9 5.5,12.4 12.3,12.4 6.8,0 12.3,-5.5 12.3,-12.4"
         style="fill:#ffffff;fill-opacity:1;fill-rule:nonzero;stroke:none"
         id="path152" /><path
         d="m 20043.9,5450.6 c -9.6,-7.5 -28.1,-5 -44,6 -45,41.9 -109.8,90.4 -186.1,104 15.7,19.7 31.4,38.5 46.7,56.1 92.7,-23.3 161.5,-90.5 174.4,-103.4 23.1,-23.1 21.5,-53 9,-62.7"
         style="fill:#381c1b;fill-opacity:1;fill-rule:nonzero;stroke:none"
         id="path154" /><path
         d="m 20002.4,5285 c -8.5,10.9 -86.7,108.3 -207.5,101.7 -55.8,-3.1 -97.2,-27.1 -118.3,-41.7 -2.1,2.3 -4.1,4.7 -6.1,7 l 0.2,0.2 v 0.1 c 2.5,2.7 5.7,6.1 9.7,9.8 19.7,19.1 57.8,48.8 111.2,54.6 82.5,8.9 167.7,-43.3 210.8,-131.7"
         style="fill:#381c1b;fill-opacity:1;fill-rule:nonzero;stroke:none"
         id="path156" /><path
         d="m 19687.4,5356.3 c -3.6,-3.8 -7.2,-7.5 -10.8,-11.3 -2,2.3 -4,4.7 -6,7 h -0.1 l 0.2,0.2 v 0.1 c 2.3,4 4.7,7.9 7.1,12 l 2.6,-2.2 c 2.3,-1.9 4.7,-3.8 7,-5.8"
         style="fill:#381c1b;fill-opacity:1;fill-rule:nonzero;stroke:none"
         id="path158" /><path
         d="m 19801.6,5206.7 c 0,-51.6 29.5,-93.4 65.8,-93.4 36.4,0 65.8,41.8 65.8,93.4 0,51.5 -29.4,93.3 -65.8,93.3 -36.3,0 -65.8,-41.8 -65.8,-93.3"
         style="fill:#1e1414;fill-opacity:1;fill-rule:nonzero;stroke:none"
         id="path160" /><path
         d="m 19836.4,5250.1 c 0,-6.8 5.6,-12.3 12.4,-12.3 6.8,0 12.3,5.5 12.3,12.3 0,6.9 -5.5,12.4 -12.3,12.4 -6.8,0 -12.4,-5.5 -12.4,-12.4"
         style="fill:#ffffff;fill-opacity:1;fill-rule:nonzero;stroke:none"
         id="path162" /><path
         d="m 20404.2,4550 c 73.3,39.8 120.7,113.7 117.1,117.5 -3.5,3.6 -50.7,-55.8 -121.3,-91.3 -173.9,-87.4 -380.9,24.1 -382.5,18.8 -1.6,-5.6 219.8,-135.4 386.7,-45"
         style="fill:#b6534d;fill-opacity:1;fill-rule:nonzero;stroke:none"
         id="path164" /></g></g></svg>
